<mxfile host="app.diagrams.net" agent="Mozilla/5.0 (Macintosh; Intel Mac OS X 10_15_7) AppleWebKit/605.1.15 (KHTML, like Gecko) Version/18.0 Safari/605.1.15" version="26.2.4">
  <diagram name="第 1 页" id="YEn80XaKoe5grbhw5tlh">
    <mxGraphModel dx="948" dy="652" grid="1" gridSize="10" guides="1" tooltips="1" connect="1" arrows="1" fold="1" page="1" pageScale="1" pageWidth="827" pageHeight="1169" math="0" shadow="0">
      <root>
        <mxCell id="0" />
        <mxCell id="1" parent="0" />
        <mxCell id="OaqMFefLZu2syXG3M1Z5-1" value="" style="shape=image;verticalLabelPosition=bottom;labelBackgroundColor=default;verticalAlign=top;aspect=fixed;imageAspect=0;image=data:image/png,iVBORw0KGgoAAAANSUhEUgAABJ8AAAQXCAYAAABRbsrEAAAAAXNSR0IArs4c6QAAAMJlWElmTU0AKgAAAAgABgESAAMAAAABAAEAAAEaAAUAAAABAAAAVgEbAAUAAAABAAAAXgEoAAMAAAABAAIAAAExAAIAAAAyAAAAZodpAAQAAAABAAAAmAAAAAAAAACWAAAAAQAAAJYAAAABTWF0cGxvdGxpYiB2ZXJzaW9uMy4xMC4wLCBodHRwczovL21hdHBsb3RsaWIub3JnLwAAA6ABAAMAAAABAAEAAKACAAQAAAABAAAEn6ADAAQAAAABAAAEFwAAAABxZUmyAAAACXBIWXMAABcSAAAXEgFnn9JSAAAB7GlUWHRYTUw6Y29tLmFkb2JlLnhtcAAAAAAAPHg6eG1wbWV0YSB4bWxuczp4PSJhZG9iZTpuczptZXRhLyIgeDp4bXB0az0iWE1QIENvcmUgNi4wLjAiPgogICA8cmRmOlJERiB4bWxuczpyZGY9Imh0dHA6Ly93d3cudzMub3JnLzE5OTkvMDIvMjItcmRmLXN5bnRheC1ucyMiPgogICAgICA8cmRmOkRlc2NyaXB0aW9uIHJkZjphYm91dD0iIgogICAgICAgICAgICB4bWxuczp0aWZmPSJodHRwOi8vbnMuYWRvYmUuY29tL3RpZmYvMS4wLyIKICAgICAgICAgICAgeG1sbnM6eG1wPSJodHRwOi8vbnMuYWRvYmUuY29tL3hhcC8xLjAvIj4KICAgICAgICAgPHRpZmY6T3JpZW50YXRpb24+MTwvdGlmZjpPcmllbnRhdGlvbj4KICAgICAgICAgPHhtcDpDcmVhdG9yVG9vbD5NYXRwbG90bGliIHZlcnNpb24zLjEwLjAsIGh0dHBzOi8vbWF0cGxvdGxpYi5vcmcvPC94bXA6Q3JlYXRvclRvb2w+CiAgICAgIDwvcmRmOkRlc2NyaXB0aW9uPgogICA8L3JkZjpSREY+CjwveDp4bXBtZXRhPgpZ8yisAABAAElEQVR4AezdB7hU1fX38XWp0hSQogRpgiCgCFGiqLG3oGDFLtHYQl6jEkvUJLYUDfYSMYnYsCOoiFETo0hEg2JBUVBARAUFBCNNBO5592//s0/mzp25d+a2Kfe7n2eYmXP2PuVzZtBZrL1OSeSa0RBAAAEEEEAAAQQQQAABBBBAAAEEEKgFgQa1sE02iQACCCCAAAIIIIAAAggggAACCCCAgBcg+MQHAQEEEEAAAQQQQAABBBBAAAEEEECg1gQIPtUaLRtGAAEEEEAAAQQQQAABBBBAAAEEECD4xGcAAQQQQAABBBBAAAEEEEAAAQQQQKDWBAg+1RotG0YAAQQQQAABBBBAAAEEEEAAAQQQIPjEZwABBBBAAAEEEEAAAQQQQAABBBBAoNYECD7VGi0bRgABBBBAAAEEEEAAAQQQQAABBBAg+MRnAAEEEEAAAQQQQAABBBBAAAEEEECg1gQIPtUaLRtGAAEEEEAAAQQQQAABBBBAAAEEECD4xGcAAQQQQAABBBBAAAEEEEAAAQQQQKDWBAg+1RotG0YAAQQQQAABBBBAAAEEEEAAAQQQIPjEZwABBBBAAAEEEEAAAQQQQAABBBBAoNYECD7VGi0bRgABBBBAAAEEEEAAAQQQQAABBBAg+MRnAAEEEEAAAQQQQAABBBBAAAEEEECg1gQIPtUaLRtGAAEEEEgWmDNnjjVu3Nj69+9vpaWlyavrxfuSkhLT46WXXsqL873nnnv88XTr1i0vjifXB/Hwww97j5NPPjnXh8L+qyCgz7G+X/pc0xBAAAEEEEAgfwQIPuXPteBIEECgAAT0g+aKK66oscDBhg0bbNy4cfajH/3Ivve971nTpk1tiy22sO2228722Wcfu+SSS+xvf/ubffvtt+V09t57b/8jSz+0Bg0aZFEUlesTFoQAg/qmalqe6UPnX9V24YUX2saNG+3yyy+3Bg34T1BVHetqnAJkut6F9kM+8buR7nPduXPnlIwjRoywvn372gMPPGBvvvlmyj61vfDtt9/27jfddFO1dpX4vU/nkLh84cKF1dpffRj84x//OKO/K/X3XKqmALz+zv/Zz35mu+22mzVv3jzeXqr+LEMAAQQQQKBYBBoVy4lwHggggEBdCOjH3NSpU/2u9AO3Ou3TTz/1Qaf33nsv3kyTJk2sYcOGNn/+fPvoo498kOuaa66xF1980Sra31tvvWXK2Dj++OPjbVXlRYsWLaxly5YVDq1sfbrBOoenn37aZz0dffTR6bqxvI4FFOzs3bu3D34m71rBpyuvvNL22msv04/uQmsVfZ47dOiQ8nQUFP31r3/tv0sXXHCB/fOf/0zZrzYXKvgk965du9p5551XI7tq166d/7uloo3p7x5aZgKbbbaZ/4eCdL0V1EvVzj777Pi/IanWswwBBBBAAIFiFSD4VKxXlvNCAIG8Fti0aZMNHz7cFHjSv3wrw2nkyJGmbAz9aFm/fr3NmjXLnnnmGbv//vszOhf9YFZQR9Paqtr0Y1uZLrXRrr32Wr9Z/fhK98OsNvbLNisWOOKII0yPYmxV/Tzre3TOOef4oO8bb7xhO++8c8HzvP7669bNTUmj1YzAsccea/rHiGxbo0aNfGadslX1+Oyzz+yGG27IdjP0RwABBBBAoOAEmPNQcJeMA0YAgWIQUDaFspXU7rrrLvvVr35l22yzTRyU0fS7XXbZxU9PUwaUpmeka/vtt5/pX+GVLXXnnXem65bT5R9//LE9//zzPjCmH200BPJZQAGC8DnN1+9UPvtxbOkFnnvuOZs9e7b/R4Xzzz/fdthhh/SdWYMAAggggEARCRB8KqKLyakggEDtCehfuJWtE6bcaUqM3ic+sqmXomk1oSkDqqKmfSgYla4pW0pZGmpXX321rV69Ol3XnC3/61//6mtSHXDAAabpP6mapnXpXPWs+lVjx461wYMH2+abb+4fe+yxhz344IOphpZZpuugqUr9+vXzUwiVWdanTx8799xzbdGiRWX6hjfh+nb7b2aIpggefvjhtvXWW/upSjqm0MI115S0L774wv7f//t/1r17dx8A3GqrrezEE0801XWpTpsyZYodddRRcR2wNm3a2A9/+EO744477Lvvviuz6a+++irOmNMxp2qqP7P77rt73x133LFMDbHkc9d4Geo89TlX0+c+nHd41riVK1fGNWseffRR3zfdH8rM09gePXpUWJ8s3fi6Xn7CCSf4XT700ENV+k6tXbvWNPaUU06xnXbaydq3b++/x506dfKfLdVyS9VkdOqpp/pVn3zySTn32spMTHUsmuqr49E+9bnTFGB9fjSdUZ9JfZ/TnUfi9iZOnGiHHnqodezY0TS1WM96P2nSpMRuKV/r833VVVfZD37wA2vbtq3/nnVz39MDDzzQfx/+85//pBynhTrmMWPG2IABA/wxa4rpvvvua88++2zaMbW9gqmNtS3M9hFAAAEE8lWA4FO+XhmOCwEE8kqgWbNm/gdTmNKmH1/6AZX4qOqPCk27qG7TtL3WrVvb0qVL83IKR/ixt+eee2Z0qqpd9dOf/tRmzpxpykJRQO2VV17xgZ3TTjstbfBCRaIVaLr55pvt/fff98XNtcO5c+faLbfc4utNKQOroqaxyiZ78sknbd26dWnr5Ciba+DAgXb77bfbl19+6bO69KwAmZaHc65oX8nrtL9jjjnG/zDXD/bFixf7H9v6gT1t2jQbNWqUr7+koE9oW265pS+OrVpFOmYdT3JT8GD69Ommz7FqgylTrqKmz7I+2/qcq+lzn/hZ12ttSwEIFehW+/Of/+yfU/2haaZ33323X3X66af7gEaqfvm0TJmHclqzZo23z/bYFIxTAEvTZjWFVjcX0Gd5yZIl/jrpJgOaFpjcZKuAq5quabJ7VWuuJe8nm/cK4uy///5+evAHH3zgA0hff/21/eMf//B16/T5StU07rjjjvOBVAVUly9f7gPCetb7I4880hvJJlXTd7VXr14+A3TGjBm2atUqP17fi7///e/++6BAcaqmvzMUsL3oootMxyzLb775xk+llL2KftMQQAABBBBAoA4F3L8u0xBAAAEEMhRwhZd1S7nI3a0twxGpu7msGb8dbcv9S3zkAlCpO1awNByLqxXle7msBL/NVq1aRS4IVWak++Ef76/Miv++0XHUxHml2rYLnEQumOG3/8ILL6Tq4pfpPHQMLjshctkWkcviijRWTefjMozic3ABIr888Q/3QzVyPzAj9wM/cj84IxccikpLS/3DZSJFLqjjx7sf9pHLKEkcGgUfF2zwx+oynSKXJeX7uKyhaN68eXH/YKXj7NKlS6T9aj9q//73vyM3jSbejysqH48LL8J496M5LIqfTzrpJD/WZQdFLpAWn78LSkUusBRpuca7DKd4THjhMov8Op2DC3aExZH2IxeNc9lk8fLwIpy7K24dFsXP+pxrnD5r6dprr73m++iauamfKbs99dRTvo+ujQu+pOxTkwvDd6Nnz56Rzstl2/jP1fe///3o0ksvjT7//POMdjdkyBB/3BdffHFG/RM7PfHEE5ELLkX/+te/IhfAile5wEnkMsoiF9Dz29Z1TW4VXZPkvhW9D9vRNdT3IdsWHPVZd9mX/vOjz6Kavh+uNpY/B20/1Xn84he/8Ov12dDn0wVN/dgVK1b466BxeqTydXcajPRZ1nqXxRi5+neRC2b58fpOulpckbbvAmB+WfhD11tjXGA0cncQjXQdwjj9PbDrrrv69S6IF7kAWhiW8XP4e8plnEYuMOZd9Hdu//79I5ddGX344YcZb0sdE69RVgPpjAACCCCAQIEJ6F+PaQgggAACGQqEH2PVDT5pd27Kiv8RpB9KCs64uk6Rmy4WuUyJjH7AhGMJwSc3zcf/2NL2fv7zn5c5o8p+4GiMHi7TJXKZFhU+QlCmzA4qeKOAU9i+y3hI2zP8qFNf/VBN1UJwxk2/icKPYPVzmTX+h6DGuho9qYb6ZcOGDfPHoh+JiS3Rx2VjJK4q9zqciwIaLruq3HqX/RTp+NTPZSqVWx/GJwefXn75ZT/G3YUtDnwlD1YwS9dI23A1w8qs1g9yN7XOr+vbt2+kz4O89QNc/dOdVzj3qgafdBBuWpnfxy9/+csyxxTeuClWaY8h8boHm2yewz4Sn8N3Q9tRkEeBCAVAwnYVgHSZZYlDUr7+2c9+5se4DJqU66uz0E0H89t2WXblNlPRNSnXuYIFYTs6bzfdtcLvtSs6X25LiY6uNl259freyUbbV4AosSmgrmCj1rnMzMRV8evRo0f79bpGCsolNjfN1q9TgCebIFEIPilY5jKeEjfpXyuQHYJa48ePL7e+sgWJn1f9va3PVgiu61z198Kf/vSnyjYTr0+8RvFCXiCAAAIIIFCEAky7c/+nQEMAAQRyIaB6J5pGpSlNmpb06quv2k033WQnn3yybbfddqa6Jqq5o6kimTRNgwrTX1QvSXV7sm2aYqSpYxU9dKzZNE2RUXM/0HzNlsrG6jxSTUfSuN/85jd+uMuc8NNuwrZc4MZUmF31pDStK11T/R01Ff1N1zSFMZOm6XHbb799ua4ueGS6o5/aI488Um59ugUqPK+mmlEqPp+qqb7XPvvs41cln4N8NeVPU+E05VA1rjRF0WX5+O2p7lZtNU2RVFMdqOQpVNp/qAt01llnlTsE1eFJnlqWzftyG3QL9na1ityPen/uunOkPi+aqqhluj76TqmguMvaSjU8Xhbqk4XPcLyiBl4MHTrUb0Xf+2y/U1XZvaa6VfS9llG6ps9jqEOV2EdT2XSzBDUV0X733Xfj1Y8//rif9uoCPeaCkvHyxBcaq3p2+sxMmDAhXqXvsssY8+9///vfmz4j2TbdsVBTcJObam+FGzhoOmS2TXeou+222/zfr+Gzpc+Tznfbbbf1dab097re0xBAAAEEEEDgfwIEn/5nwSsEEECgTgVUT0f1eVTzSfVyFHRSMENBBDUVG1YwScWKdSe7TJp+IOoHl2qtqMBzts1ldPl6Su4fW9I+KyiWTVu2bJnvrppULvuk0qG6rX2oeZPcWfVfFIBRc9Nu4tWqB6Wm2kgq6KzC36keZ5xxhu8n21RNgS/9uMykqXBxuhbWqViym+6UrluZ5eEcFIRKdexhmersqKU6BzcN0P7yl7/49Xp2093858llePiglF9RC3+otpGbeuQLsE+ePLnMHlRbR8EVFWVXgerkphpbKtxe1Ufy9vRe35sfuyLx+iyEz5wCGFqm2lf6LCrgoXpAFTUVuFYLn+GK+qZap2CPvlMKdqg2l2o+6Xj0cNlpfogKkyfW8Eq1nZpYps9hRd9rFdBP1xTMC47JfVTHTeellvidDK9VOyvd91mBUn3fk8fqGqnp78JDDjnEv872DxUoT9f0uVCrKOCWbqzLKjWXEWcuwyr+u1o3NVD9Kjft1n/ONdZNCfTe6bbDcgQQQAABBOqbAMGn+nbFOV8EEKh1gRAkSH5WJkqqpkwMBUXuu+8+n7GiQr4qHK27u6npR6OK9mbS9GPtd7/7ne+qLJiq/Mt+JvvJps+3337ru1d0x77E7blpYolvy70O61VcPbSQmaKAQkXZHeFHvgp7p2oKECibI5MWjiNV38R1iceZqm9YFs5BWRQVnUPwVNAiVdNd8vQITVlkKrxcm01FsN2USL+LxMLjrhaWhYwufcbTBTBq89iSt63sFAUP1JRdowBhuqZgpFowT9cv1XJlNCkQrDu1KcNKgQ5tT993ZXaFrCqNVcZhPrfEz3PycSqzSd8btcTPenhd0ViNCcHk0F/LFIhUk1Eoeu8XZPGHgqHpWgiWJWfppeuf6XI5uJpivruCw25qbKZD6YcAAggggEDRC2T2f9hFz8AJIoAAAjUnkC5woKycTJp+yLvaRP729mGKlbII3n777UyG+3+B17/664d/uukuGW2ohjqFH6Yh8FNDmy2zmTBtSeddUXZH4royG/jvm5B1lmpdbS8L53DHHXdkdA6a4paqabplyI7SemVUhW2n6l9Ty8LUO92FTMegpruV6Ue4fuynmrblO+XgjzDtSp+HijLTQmZM+Axneqiu/pbpjo0KJCtz0RXL9lP9dLc2/f2g4ErilD8dB+1/AvkQpPzf0WT3Kny2NGrBggXZDaY3AggggAACRSxA8KmILy6nhgACuRFIDHAkvk4XLEh3lMrASaxfNHfu3HRdyy2/9tpr/TLV2pk6dWq59XW5QDVW1JRtlEkGiWoEVdTCemWQhKYsM7VUU9FCn5p+DseRaruJ6xKPM1XfsKwmziEEPRToVN0wZZspu8fdOTDsptae3V3+zN0dzgc9Q7ZTmAI4fPhwP5Uw1c6VEZicJZjN+1TbrKllIfgUPsOZbldZT/osKpj59NNP+6ljyZk4Ibsn023msl/i5zn5OFT3KGSPJX7Ww2tNK66ohfWhv/qG74LqVOV7VlhF58Y6BBBAAAEEEPifAMGn/1nwCgEEEKhUIEzJqqtMBWVBhZbptDX1d3epimuluNuYh03k5DnUttHOM8kEUJbX6tWrUx7rvHnzfI0srQy1YvTa3eVNTz6jJNSa8Qtq8Q93t7q0Ww/rVDNItY4yaeEcFKyoalN9IWXUqAaNu8W8hSDkb3/727iAczbbzvbzHrKfVOdJAYtQ/+nMM89Mu1sFytJlC2ayPO2GK1gRso6UYdOtW7e0PUNWVKrC8mkHuRXuroR+tYJW6aadJWanJW8rW/fk8TX9XgHsdH/nTZs2zRcW1z4Tv5Phtb6P6bI+lRkWvq+qDRWagphqytgLxerDunx/Dp8tHWem3/18PyeODwEEEEAAgZoQIPhUE4psAwEE6o1AKJyrH03Vae+9957/cV7ZNlQHKrSBAweGlxk9/+EPf/D1i1QE191WPqMxtdGpd+/evsaNtj1jxoxKd6EMqeuuuy5lPwVR1BTUSSxeremJPXv29OvOP/98X3Ddv0nzR8hoSbM6o8WPPfaYpcpGU7bGnXfe6behO6pl2kKARp8NTb2rqCkbREXlE5sCXtdcc41fdOONN/ri9coq0l3V9CNed9HLdupjtp933QFQU9RUv0pFyFVTJ12h8XDsyghMzBDM9nXYTnhOFyQJ6xVQUqF/NQU5EmsvhT7hWd8dNQVzs2nh7mwheJY8Vtk+t9xyS/Li+H227vHAWnqxaNEiu/fee8ttXVN7dTc6NQWZlf0WmuqOabqlsh1DEDSsC88aq8wp3fEzsU6ZvsuhTplqKGV6x8+w3dp6ruyzpb9XgofuEJjt39m1ddxsFwEEEEAAgXwQIPiUD1eBY0AAgYIR6N+/vz9W1XCpaCpKZSekO0v16NHD3+5dQYwlS5bEQ/RjTVOlVPcp3K5btw3X3ZWyaQMGDPABAI0JGSjZjK/JvuHHe/gxX9G29cNd08QUPFONHDUFdBRICT+AdSc/FToOTT9yx44d63/syk4/XF944QUf/Ah9lHWlPsqw+NOf/hQWV/lZ+z/44IN9faXwo/T111+3/fff3x+vplllU3NLRqEukgpiK4iWmCmmH+nKqtAd2vRZSCzQrGlPuluiggG661YIZOnk7r77btt6661NAYRwt79MTzp83mfPnu3vElfZOGXn/djdUU7t5Zdf9s91XWhcAbiRI0f6jJnEILECGArmKuCkIJwCHumCIjpwTYuTmVr4/Po3GfyhmwWoULY+FyNGjLAPP/zQj1IQ8LnnnrOK7h6njsFdx/zoo49msMfa7aLvpLLaNI0yTJ1VdpfqWoUsvxAYDkeijK9wkwVdE2XlheuhZ32Hx4wZ47uPHj3af0bDWD3rLoj6jn300Uc+s/HZZ5+Nv89y1Hft7LPPLlPfLHF8bbzWXSP1/dLfy4nfPwXMlWmoek/hO6tzCxlsicei77H+PguPxCzPsCw86/tMQwABBBBAoGgE3P8Y0RBAAAEEMhRwPyIj94NI1YEj98MicnetilwgwD/cj7EMtxJFLgjit6HthIe26249Hr8Pyw888MDI/Qgtt233g9j3dT+0y60LC9wPoahJkyZlthnWJT6HfbkfzP6cdF7pHkcccUTi0IxeT5o0yR+DywaI3A+qlGN0HjoOPbuMIf/a1czxJm56VHwOp5xySuR+fKbchvbjgj5xXxdgiFwmTuSCIvEy7cP9UC4z3gVo/Hpdy8pasHJTyyJXm8aPc9PcIjdFMt6H9uemz6XcVBjvfrSXW+9+mEauzle8HfXVdvW50OctjNWzy56Jx7tApV8nX5d9ES8PL1wR8CgYurvRhcX+uaJzd5lLkctci/er4wifdxc0LbOd8MYFC+J9uaBg5AKrYVWdPLsgR3y8ctLnwWXKlfFzwZTIBRAqPB6Xvea34wqGV9gv3UqXvVbmOHQdw98dLtsqeuqpp+L1Lhur3Gb222+/eL3OIbi7rLZyfdMtCNdWDtpnuu90WP7www+X2VT4O+aSSy6JXEDNH4++U8l/T/3qV78qMy680efZBd/i89BnOPmz7AJYkcviC0PKPLtAXaRrFT734fus57BM3/nEJiet07mna4l/16Trk2p5oqf2ob8v9feL/p4Kx6PvvsusSzXcL0veRhiX6jnV5yLthlmBAAIIIIBAnguQ+eT+a09DAAEEMhXo1auX/5d+ZSWpnosyTlRYWA8Ve860nXXWWfbOO+/4zAsVY9Y0ExUnVm0UZcxoCosLsvi7ZClTQsuq0jTlSdkBmTZN5wpThdI9V2XK2qGHHmqdOnXytXAyKYD+0EMP+ewkTVuRq7JIlFWgzBVlP6XKKNA5Hn744aa6UMqyGDx4sKlmlrIslJGjTDAVcHc/Vu3CCy/MlCRtP9nqVurKUtJnQdPgVDRZ2SBarulu2TYXKPTZJdOnT/cZRNtuu62fMqfsCG1bGTO/+c1vbNasWXEtIU0hc4EMb6LMDPfjvtxulY0Vzvm8886zDz74oFyfVAuUUaYMMrnpfPX5CJ/3xIyNxLH6LOsOb2oVFRpPHFOTrzX1T0aalqljVl0nZRDJRRlJV111lZ8uqQyWitoDDzzgV+u7WpWm792UKVP8NdPnUJ9jZQOdc845/rufOEUt1fYnTJjgs99UOF7TF4N7yB5KNaaiZcqmSfedDsuVwZOq6XOpz4GmlGkarbJ3lA3lAmT+HNMVtNe4Rx55xHQuhxxyiJ+SqWxGTc3Ue00HfvDBB30WWqr9usC7z3y67LLL/BS2Zs2a+c+gHA866CA/vXXfffdNNbRWlml67+9+9zvT32f6brogmP87W9MklVGp+nr6bo0aNapW9s9GEUAAAQQQKGSBEgXHCvkEOHYEEEAAgcIQ0I9+BYU0tUwFqZObpmspsOSyEuweVwcoX5uCGWqabqRgEK2sgKarqd6Ngi0KnCqAUGht4cKFflqsgr6qz1TV4G+hnXfy8erzrWCxvrdXXHFF8mreI4AAAggggAACGQs0yLgnHRFAAAEEEKiGgDJulCGkjJJwe/VqbI6heSqguloKPCkDKrEofJ4ebsrDUi0o/ducm25WbwNPKWFYiAACCCCAAAIIVFGA4FMV4RiGAAIIIJCdgKamKINC09PCHaGy2wK9813gjTfesOuvv94fpopIhyyxfD/uxONTIW1l5nXp0sUUMKUhgAACCCCAAAIIVF+gUfU3wRYQQAABBBDITED1c1SzRjWbdCendLWbMtsavfJFoFu3br4OkKbcqalWl+pEFWJTbSVlPKm+j+62RkMAAQQQQAABBBCovgDBp+obsgUEEEAAgQwFVMBaxYNpxSWggI2au/ufHXzwwXbNNdekLSKd72euouR60BBAAAEEEEAAAQRqToCC4zVnyZYQQAABBBBAAAEEEEAAAQQQQAABBJIEqPmUBMJbBBBAAAEEEEAAAQQQQAABBBBAAIGaEyD4VHOWbAkBBBBAAAEEEEAAAQQQQAABBBBAIEmA4FMSCG8RQAABBBBAAAEEEEAAAQQQQAABBGpOgOBTzVmyJQQQQAABBBBAAAEEEEAAAQQQQACBJAGCT0kgvEUAAQQQyFzgiiuusJKSkpSP5s2bW69evWzkyJE2ffr0zDdaBz113HosXLiwRvd28cUXxxYnnnhijW6bjeWvwHfffWc33HCD7bLLLrbFFltYy5YtbYcddrDLL7/cVq1aVSMH/s0339i1115rQ4YMsfbt21vTpk2tc+fOts8++/jP8tdff13hfnIxPt3fDamW6zxoCCCAAAIIIFC8AtztrnivLWeGAAII1LqAAjhXXnml30/Hjh3j/ZWWltqKFSts06ZN8TL9EFf/fGj68av24osv2t577+1fV/ePjRs32jbbbGNffPGF39Rmm21mS5YssdatW1d304zPY4GVK1fafvvtZ2+99ZY/SgWFGjZsaGvXrvXvu3btalOnTjU9V7Xpc3r88cfbl19+6TfRpEkTU3A3MeCk/e+0004pd5Gr8VtttVXK4wkLN2zY4P+e0PsLL7zQ/vjHP4ZVPCOAAAIIIIBAkQmQ+VRkF5TTQQABBHIloKBLeCxdutTWr19v//rXv+z73/++PyQFqfItA6omraZMmeLPv1+/frbvvvvat99+aw8++GBN7oJt5aGAMtwU+Nl8883tkUce8UGnNWvW2PPPP29bb721ffLJJ3bYYYeVCcRmcxqvvPKKDR061AeejjzySHv99df9Z0tBL+1nxowZdtlll/mMq1TbzeX48PdBuudLL700PuSf/OQn8WteIIAAAggggEDxCZD5VHzXlDNCAAEE6kwgMfMpiqKU+/3ss898RpBWXnTRRX7qUMqOdbiwNjKfhg0bZpMnT7ZrrrnGlPHx4x//2AYNGmQzZ86swzNjV3Up8MILL9j+++/vd/nQQw/ZcccdV2b3r776qp8mp4V//etfLdsAi7KnNH1vwYIFds4559gtt9xSZvuVvcn1+MqOr2/fvvbBBx/YHnvsYdOmTausO+sRQAABBBBAoIAFyHwq4IvHoSOAAAKFIKC6NFtuuaU/1NWrV6c9ZNXGUeBmt912s7Zt2/qaNprGph/0+hGfrikD5De/+Y0P9Cj7RFOSFPzZcccd7eyzzzYFCEJTQCgEnrRMdWYS689069YtdM3qWdPrnnnmGWvQoIGddNJJdtRRR1mLFi3szTfftHfeeafSbX311Vd21VVX2Q9+8AN/7pqyp2M58MAD7Y477rD//Oc/KbehH+4/+9nPTD/iW7Vq5WsN9e7d25s9/vjjpumPob300kvxuYZlqZ6Dh/ontuTxyvZR1o+ub+PGjctMX1Smy6233mrDhw+37bff3mflNGvWzHr27Gmnn366zZ49O3HTKV9najJnzpz4vJQFVFE7+eSTfd+ammp57733+t316NHDjj322HK71mc57Ou+++4rt76yBffff78PPOnzXJUpabkeX9H5KQtSn181fSZoCCCAAAIIIFDkAu5fqmkIIIAAAghUScDVcVK6k3+k24DLfIr73HzzzSm7uUBG5IIYcT9XMydywZT4vQuIRL///e/Ljf3000+jLl26xP1c8Cdq06ZNpPHhuPbaa6943M9//vPI1aaK16mv3ofHzjvvHPfN5sUf/vAHv80DDjggHnbKKaf4ZS5jJV6W6sVzzz3njzkcb6NGjSIXrItcQCc+zkmTJpUb6gJ1kc43jHMBq8gF7cosc4G5eJyr+xP3jRemeBG2p/6JLXH8hAkT4uNzAb9I+050dkXm433pfHRceg7bdnWRIm0jXcvWRPvWtl1mUbpNRq4GmT9O9XvggQd8v7vvvjs+puTzTbuhhBUuKOTHjxo1KmFp2ZeuSLjvo2vlMpHKrqzknSsu7sdW9hlKt5lcj093XFp+2mmn+XNzBdojN32woq6sQwABBBBAAIEiECDzyf1fKA0BBBBAoOYFVGxcGUtHHHGE33iHDh3MBWTK7UhZQwcddJBpep5q2rzxxhu2bt060925VGD517/+tS/grPowTzzxRJnxmva3aNEinyX0j3/8w3TXMRU6V70p3clOWUO77rprPMYFv+KC4Fo4ceLEuE6VsnVUT6cqbdy4cX5Y4vnpLn9qLtDhj8e/SfpD2UPKDlL2lmpFKXtKU6WWL1/uDWTxi1/8wmc1JQ7Vef3yl7/0mU2a7qftyEzZQsogU70hZeIoE6s2mjLIXKDNZ64oK0v7/stf/hLvShlOY8aMsXfffTc+Ll2T9957z2dL6bV8Fi9eHI8JL6pi8tOf/tQPf/jhh9PeXW78+PG+VpKy8JSZVt0ma31m1Pr37592c2GdstBCpk/azgkrZKTrr6a6afqcn3nmmX4Kq7L7VOBftaRUayxVy/X4VMcUlikD8tFHH/VvVUhdxdNpCCCAAAIIIFDkAkUQQOMUEEAAAQRyJJCY+RSyh/TsbgUfZx8pM8ZNz4pcMCjlUYYMiBNOOCHlei10t7H3WRIDBgwo08dN6fLLXWHvMssre+P+0+7HVSXbJXnb7k5mflvK1ErM4HDBhshNG/TrXFAkeZh/72rd+PW9evWK3J3LUvZJXqgMnpAV5qYkRtpPJi0xc6mi/ulsEscPHjw4cnf3q2gzFa5zBbT9eV999dXl+lXFxAUdIxfc9NscO3ZsuW1qgaud5NePHj06Xl+dzKdZs2b57cnrySefjLeZ/OLtt9+O+7maYMmr07530wnjcW5aaXzNXeApcndQjNdp/27aWrnPQa7Hpz0xt8IFKuPjdwG2irqyDgEEEEAAAQSKRKB2/knU/Z8QDQEEEECgfgkoSyk8li1bFt/dS5k8yo4Jt4lPVEm8I9zFF1+cuKrM65BRpPpJidtxP8J9P2VP5ardddddftfKpknM4FDtJNUYUgt9/Jv//vHRRx/5uwHqrZtSmPZuZYlj9NpNV/PZPaqz5IJyvoZRcp/afn/hhRf6bLSq7kd3b1PT3RATW1VNZBGKef/5z39O3KR//dprr/ksLL1R9lBoyuBy/z/nH6E2U1hX2bMyzEJLvO5hWXhOXJc4JqxP96xsuNB++9vf+rpajz32mClrSOt0F71jjjnGd1Ex8xtvvDF098+5Hl/mYJLe6HjVXDA5vhtmUhfeIoAAAggggECRCRB8KrILyukggAACuRIIP+LDs6ZiaQqVplc9/fTT9sMf/rDctDndCU4BKDUV11Zh5VQPTUkLTT+6Qzv00EP9S01BU1Dh2Wef9dP1wvraftbUQAWD1EKALHGfYeqdip5r2lRiU8FlNVefyg455JDEVRW+DuM0FWvrrbeusG9trdx9990r3bQCha4Wki/8rkLwmgIYiplruZqmWia2cG7Zmmgbuv7ah4q865HYwpRAVxvKVJC9EFpisXi9VgDz6KOP9kEoHb+rdWaaZqgAjpoCmC4bzb/WH7keHx9I0gsVm//3v//tl1JoPAmHtwgggAACCBSxAMGnIr64nBoCCCCQSwHdsW2nnXbyt5hX3SfVoFGmiQI2oSXW/AlZU+mewxhlUoWmDJwRI0bYhg0bfM0hBXGUDaXb02vd3LlzQ9daedaPfx2PAgGpMme22247X3NKgQA3xavMMYR6Qe3atfN3xiuzsoI3YVzXrl0r6FW7q1S/q6J22223+bsPqjaV6j4pW8cVlvZ1ilSrSMEoNTdNscxmwrlla6KN6O6Aqh2mlpj9pM/bI4884pefddZZ/rkm/tDdBUNL/EyGZeE5cV3imLA+3XNiXzct0w4//PByXRVsu+CCC/xy1aBSMDe0XI8Px5H8HLKe9PeD7gxJQwABBBBAAIH6IUDwqX5cZ84SAQQQyKnAGWec4fev6Xcqqh2aipKHpkypkDVV0XNikEfTrRRYcHV1zNXFsX333ddPfVNh6+uuu84X8b7++uvDLmr8OUynU1ZTYmZPyPDRs6Z8qSn4pPMKTeuq0qo6rir7SjdGmUnpmopqn3feeT7zRtPCZsyY4bPbNA1MwSU9NF1QLdFD76t7bqHwuKsBFge2wmsVGldB+5pqnTp1ijf1+eefx6+TXySuSxyT3C/5/fe+9714UZ8+feLXyS/69u0bL0rMCsz1+PigEl7ohgAq/K6maaph2mxCF14igAACCCCAQJEKEHwq0gvLaSGAAAL5JJCYpfPxxx/Hh6YpdqEl/nAOyzJ91tSjK6+80jS9zRXuNt35TtP8FNxSBpSmgNV0U4BLgZVMm85PxxVaOHfd2S45Ayj0SfUcxmXr1ahRo3hzYapjvOC/LxQcrG7TNES5u2LwflrYLrvsYro7W2ILGU6Jy/Q6nFu2JmE7P/rRj/zd4FRbSVlpamHKnbLumjZtGrpW+1nBrHC8+iyka2GdgpMyybS1bdvWEgNI6cYlBvASg3e5Hp/qeF1hdn8nR61jyl0qIZYhgAACCCBQvAIEn4r32nJmCCCAQN4IJNb2adGiRXxciYEJdyeweHl1XijIst9++/lb0CvYoB/niUEfbTv8SE/84Z7tPkPW06BBg3wBcAU80j3ClKlx48bFuxkyZIh/rUDN3/72t3h5ZS/COHeXMMum0HqbNm3iTX/66afx68QXoRZP4rJsX4dtKyCogEuqlnw9Qp9wbtmahPHKyAoFxTX1LrH+U1ge+tbE8wEHHOA389xzz5XL4grbVx0yNXcXP2vWrFlYnNGz6qCpKZssXXv//ffjVd27d49f60Wux5c5GPcmTLnr2bOnqf4WDQEEEEAAAQTqj0Dq/yusP+fPmSKAAAII1IGApj6FtvPOO4eXvtbRCSec4N9fe+215Ypyxx3/+2LFihVlFqmOVLqmwFOYHpYcBAk1h5QlVZWWOH1INadatmxZ4ePYY4/1u5k0aZKFc9APcGVnqV166aVlamH5hWn+0FQ2Hb+KS59//vlpgx7Jw1V/KgQ/Hn/88eTVfprcH/7wh3LLs12g2k5qqvWUKrinQNtLL73k+yT/UVWTxO3orncKQCorTT5qCnTo/Gu6hYLy8+fPN92JLrkpmPfiiy/6xakK0if3T35/6qmn+kXz5s0rV6xfK1RLTNNL1ZQlpUBoYsv1+MRj0dTUEHQ87bTT4gBwYh9eI4AAAggggEARC7j/MaQhgAACCCBQJYHLL79cRYz8I9UGXGZOdNlll8V9dt1118j9YC7T1RUdj1wtHN9Hz/fdd1/kikTHfZYuXRq5qVyRyx6KXCZHvFwvXPHqyN3pLnr11VcjN5UsXvfRRx9FLkjjt+kCT5G7w1a8Ti/c3dr8Old3JnJT3sqsy+TNo48+Gp/TggULKh3iCm5HLvDjx9xyyy1xf3c3wMgVXvbL+/fvH7nATOQCW369Cy5FLoASuSLZ0d///vd4jF6MHTs23v/w4cMjbSc0nY+7u2A0bNiwyE2jC4v9syvw7Me5YtSRq5UVueCdXz5nzhzf303VirfrgiZlxup9Rdc6dHYBhrifq8EUuULYfpUMdNzNmzeP3JQ138dNxwzD4ueqmsQbcC90XcOx6tkFPxNXx69dHa64X/L5xp0qeeGK3PttuKBbpM+Fy9ryI+QQPteuAH6k65ncMtm/u8Od377M9D1wxfX9Zty0y8gFPuPjv+eee5I379/nenw4qPB3hQsMRvrO0xBAAAEEEECgfgnoXyVpCCCAAAIIVEkg/KDUD3wFghIf+jGeGADQD3BXfDnlftzUochlpsT9FTBSIMRN0YuXaVv7779/mfGJ29cYN7UsDuZonZteF914441lxujN/fffH2/XFS2PXNZIpECIglKZNHdXNT/++9//fibdfR9X7NqPcXcALDPGTdmKEq10PAo06Dmcn8uYKjNGb37/+99HOufQR8EtmSUuc0W+y4xzU+LigIjGaR8ui8pvQwEpl5EUby85GJNp8Ek7PO644+LtaD+usHTkstD8Mpndeuut/nWq4JPGV9VEY9USA2CyTAxM/l+P//szk+BPYv9Ur10mWzRw4MD4fBVMVIAtXBed48KFC1MNjTLZv4J2LkMu3p7L6POf87B9Pet7mK7leryOSwE5d0dIfw4KitIQQAABBBBAoP4JMO3O/V8bDQEEEECg+gJffvmlJT50i3kVZHaBGl/0WTWK0t3tS4WYZ82aZXfeeaevU9OuXTs/Dc39Z9k0FUtTzVTDx2WWlDnQ559/3i655BLbc889faFp3TFPTWM05ej111/3d14rM8i90S3eXQDK1+FxgQJfO0kFvBNrUyWPCe9V08hlIvm3mnKXaQt9dWc+1SIKTXV5XKaWuQwxc0EMPzVOBcg1jUp2MtFd/JKbzluF1HUnQZ2vmqYD9urVy44//nibOHGin56XOK5z586mqWAq9hyKWWvKoKaE6Zhqqg7PAw88YDfddJPtuOOOvsi3aji54KNpWt8rr7zipygmHlfy66qahO3ISwW31Wq60HjYR3hWLS3d0VDT31xgzVxAz08pc5ls/g6M+ly7AFTonvWzaqS5wJ//Dmmapt67gJK/fi7I5z2vuOKKtNvN9XgdmKbbadqdGoXGPQN/IIAAAgggUO8EShRvq3dnzQkjgAACCCCAQNEKzJw500Jtsblz59ZKvaeixePEEEAAAQQQQACBWhAg86kWUNkkAggggAACCOROwE3r8ztXBlRtFBrP3ZmxZwQQQAABBBBAoDAFCD4V5nXjqBFAAAEEEEAghcAzzzxj48eP92suuOCCFD1YhAACCCCAAAIIIFDXAo3qeofsDwEEEEAAAQQQqEkB1eraY489THXGli1b5jd96KGHmrsTXU3uhm0hgAACCCCAAAIIVFGAzKcqwjEMAQQQQAABBPJDYOPGjaaC8cuXLzcVVT/vvPPsoYceyo+D4ygQQAABBBBAAIE0AvqHsyeeeMJ+8pOfWO/evc3dNdffXGTAgAF21VVX+ZuMpBmadrG727Gde+65/oYn7i65/ln/b/T111+nHaObw7g7RPsbxLg7KFv79u1NN8v54IMP0o7JdgUFx7MVoz8CCCCAAAIIIIAAAggggAACCCBQTYG//vWv/s7F2ozu/qy75X7zzTc2ffp0W7VqlfXp08emTp1qHTp0yGhP+oe43XbbzebNm2c9evTwN2CZPXu26aE6mK+++mp8R+CwwdLSUjv66KNt0qRJ1rp1a9tvv/38P+i9/PLL/i7Muuvu4MGDQ/cqP5P5VGU6BiKAAAIIIIAAAggggAACCCCAAAJVE2jcuLGdeeaZ9v777/vHo48+as8++6zpbr0DBw60OXPm+IzuTLeuDCcFno488ki/jUceecTee+89O+ecc+zDDz+00aNHl9vUuHHjfOCpV69efn8TJkywl156yR577DFf0uDEE080ZZlXt5H5VF1BxiOAAAIIIIAAAggggAACCCCAAAI1KKAspSFDhpimzikbqkmTJhVufcmSJb78QKNGjWzRokXWsWPHuP/69ettm222sRUrVtjixYvLZFL17dvXT69T5tPhhx8ej9GL4cOH21NPPWUKSB111FFl1mX7hsynbMXojwACCCCAAAIIIIAAAggggAACCNSigOo+qSlw9NVXX1W6J2VMaQrdnnvuWSbwpIEKYB122GGm2k66M3BoH3/8sQ88qc7T0KFDw+L4WdPx1CZPnhwvq+oLgk9VlWMcAggggAACCCCAAAIIIIAAAgggUAsCCxYs8FvV1Ly2bdtWuod33nnH9xk0aFDKvmH5rFmz4vVhjGpNaT/JLdWY5D6Zvm+Uacf63G+rrbayNWvWWJcuXeozA+eOAAIIIIAAAggggAACCCBQRwKaOtWiRQv74osv6miPudnNsGHDbP78+bnZeTX3qmuULk6gIt/VaTfffLMffvDBB/vMpcq2pWNR051/U7WwXHcIDq0qY8LYbJ8JPmUgpsDThg0bMuhJFwQQQAABBBBAAAEEEEAAAQSqL6DfoPotWuxNgad58+Zazx5tCupU5y1YaSUltRNS0dS4u+66y2cjXX311Rm5rF692vdr3rx5yv4KZKrpLnqhVWVMGJvtc+1IZXsUed4/RDKrG7nM89Pk8BBAAAEEEEAAAQQQQAABBPJEoF+/fnlyJLV/GAo8vfva2bW/oxrcww67jjVr0MFqOk6gO9yddNJJFkWRjRkzxkLtpxo89JxsippPOWFnpwgggAACCCCAAAIIIIAAAggggMD/BD7//HPTNLuVK1fa6NGj7dxzz/3fykpetWzZ0vdYu3Ztyp4hi65Vq1bx+qqMiQdn+YLgU5ZgdEcAAQQQQAABBBBAAAEEEEAAAQRqUmDFihV24IEHmmoynXrqqXbddddltfkwY+uzzz5LOS4s79q1a7y+KmPiwVm+YNpdlmB0RwABBBBAAAEEEEAAAQQQQACBmhWILKrZDRbQ1lR76ZBDDrH333/fjjzySPvLX/7i6kmVZHUGYXrem2++mXJcWL7jjjvG68OY9957z9e5Tr7jXaox8eAsX5D5lCUY3RFAAAEEEEAAAQQQQAABBBBAAIGaEFi/fr0NHz7cZsyYYQcddJA99NBD1rBhw6w3rel6DRo0sGnTptnSpUvLjNc+Jk+e7Lf7ox/9KF7XvXt323777W3dunU2ZcqUeHl4MWHCBP/ysMMOC4uq/Ezwqcp0DEQAAQQQQAABBBBAAAEEEEAAAQSqJrBp0yY7/vjj7Z///KftueeeNnHiRGvSpEmFG7vtttusT58+dskll5Tpt/XWW/ttfffddzZq1CjbuHFjvP6iiy6yZcuW+ULmHTp0iJfrhWpLqalPYtBKx/LUU09Zz549fXDMd6rGH0y7qwYeQxFAAAEEEEAAAQQQQAABBBBAAIGqCCiQNGnSJD+0Xbt2PmiUajuq/6T1asuXL7e5c+fakiVLynW96aab7LXXXrPHH3/cB6h23nlnfzc+Tavr1auX3XDDDeXGnHbaafbMM8/441BQa7/99vP7mDp1qjVr1szGjx9vjRpVP3RU/S2UO3QWIIAAAggggAACCCCAAAIIIIAAApkJqNpTaYHVfNIxZ1eVqbyF7moXWghChfeJz1dccUUcfEpcnvxaASpN31P/J554wgeUOnbsaD//+c/tyiuvtNatWycP8VP1HnvsMbv55ptt3Lhx9vTTT1uLFi3sqKOO8mP69u1bbkxVFpRErlVlYH0a069fP3+6s2fPrk+nzbkigAACCCCAAAIIIIAAAgjkSKC+/A7VeUalS+2d187MkXTVdjtg1z9bSYMOPrOoaluoX6Oo+VS/rjdniwACCCCAAAIIIIAAAggggAACCNSpANPu6pSbnSGAAAIIIIAAAggggAACCCCAQLJAVGDT7pKPn/cVC5D5VLEPaxFAAAEEEEAAAQQQQAABBBBAAAEEqiFA8KkaeAxFAAEEEEAAAQQQQAABBBBAAAEEEKhYgOBTxT6sRQABBBBAAAEEEEAAAQQQQAABBBCohgA1n6qBx1AEEEAAAQQQQAABBBBAAAEEEKi+ADWfqm+Yz1sg8ymfrw7HhgACCCCAAAIIIIAAAggggAACCBS4AMGnAr+AHD4CCCCAAAIIIIAAAggggAACCCCQzwJMu8vnq8OxIYAAAggggAACCCCAAAIIIFD0ApGVRlGBnWWhHW9uecl8yq0/e0cAAQQQQAABBBBAAAEEEEAAAQSKWoDgU1FfXk4OAQQQQAABBBBAAAEEEEAAAQQQyK0Awafc+rN3BBBAAAEEEEAAAQQQQAABBBBAoKgFqPlU1JeXk0MAAQQQQAABBBBAAAEEEEAg/wWooJT/16g6R0jmU3X0GIsAAggggAACCCCAAAIIIIAAAgggUKEAwacKeViJAAIIIIAAAggggAACCCCAAAIIIFAdAYJP1dFjLAIIIIAAAggggAACCCCAAAIIIIBAhQLUfKqQh5UIIIAAAggggAACCCCAAAIIIFCbAqr3VGqFVfVJR1tSmyhFtm0yn4rsgnI6CCCAAAIIIIAAAggggAACCCCAQD4JEHzKp6vBsSCAAAIIIIAAAggggAACCCCAAAJFJsC0uyK7oJwOAggggAACCCCAAAIIIIAAAoUmEBXYtLtC88318ZL5lOsrwP4RQAABBBBAAAEEEEAAAQQQQACBIhYg+FTEF5dTQwABBBBAAAEEEEAAAQQQQAABBHItQPAp11eA/SOAAAIIIIAAAggggAACCCCAAAJFLEDNpyK+uJwaAggggAACCCCAAAIIIIAAAnkvEJmVukdBtUI73hzj5l3m0+uvv24jRoywTp06WePGja1169a255572t13321RVP7qbtq0yW688UbbYYcdrFmzZta+fXs//oMPPsgxLbtHAAEEEEAAAQQQQAABBBBAAAEEEMirzKfHH3/cjj32WFNAadCgQT7otGzZMps2bZr961//sn/84x/2wAMPxFettLTUjjnmGJs0aZIPUg0dOtSWL19uEyZMsClTptiLL75ogwcPjvvzAgEEEEAAAQQQQAABBBDIdwH9o/uiDz6zd6fNsRVLVlrpplJr1qqZ9RrU3foO6W2bNW+a76fA8SGAAAJlBPIm+LRx40YbNWqUDzwpwHTCCSfEB6ospj322MMefPBBO/30022fffbx68aNG+cDT7169fIBqo4dO/rlCmIdffTRduKJJ5rGNmqUN6cZnxMvEEAAAQQQQAABBBBAAIFkgaWfLrdn/vIP+/KTZfbV4pW29pt1fgZI46aNbc6Mj+xfT8ywXYd+33Y5eCcrKSlJHs57BBBAIC8F8mba3Zw5c2zp0qXWu3fvMoEnqW2//fZ20kkneUBNywvthhtu8C//+Mc/Wgg8acFRRx1lw4YNs3nz5tmTTz4ZuvOMAAIIIIAAAggggAACCOStwBcLl9ojf3zS3vvXHJv31sfmok7WsWt769Sjo7Vq08KWuoDUB9Pn2j8fnGYvP/ZqyrIkeXtyHBgClQioyE4hPSo5HVYnCeRN8Klp08xSR7fcckt/Ch9//LHPalKdJ023S27KfFKbPHly8ireI4AAAggggAACCCCAAAJ5JfDd+g325O3P2sezPrHv1n1nfXbpaZ223coHnVps0dy23LqN9RzY3dp13tIWuD6vTZlpc1+fl1fnwMEggAAC6QTyJvjUo0cP23bbbW3u3Ll+el3iAWvq3Pjx461NmzZ2xBFH+FXvvPOOf+7fv78vTJ7YX69VM0pt1qxZ/pk/EEAAAQQQQAABBBBAAIF8FZg7Y54tXbTc1q5aZ137bWMNGzUsd6iaZqcgVNutWtsXHy+1mX+fRfZTOSUWIIBAPgrkTTGkhg0b2r333muHHnqor9V0/fXXm2o5aSqeCo737dvX7rnnHmvbtq13XLRokX/u3LlzStew/JNPPkm5PtXCfv36pVps8+fP94GxlCtZiAACCCCAAAIIIIAAAghUU2DW1Pdthavx1K5TG2vYsOIcgXbfa+vqP82zxfO+8LWhturWoZp7ZzgCuRXQdLtSP+kut8eRzd51zLTMBfIm+KRD3n333W3q1Kk+u+nNN980PdSaNGliBxxwgCk7KrTVq1f7l82bNw+Lyjy3aNHCv1+1alWZ5bxBAAEEEEAAAQQQQAABBPJJYOOGjbbMFRr/ZsVq69Rzq0oPrVHjRtbS1YBatXK1LZ7/pRF8qpSMDgggkGOBvAo+PfTQQ3bqqafarrvuanqtTKTFixfbddddZ8qEevHFF2369OmWaX2obG1nz56dcki6jKiUnVmIAAIIIIAAAggggAACCGQhsMHVeyp1xcVVYLxR4/LT7VJtqpGblrdpU6lpLA0BBBDId4GK8znr8Og/+ugjGzlypLVr186efvppGzx4sCl7SVPv7rzzTj8dT5lQ48aN80fVsmVL/7x27dqUR7lmzRq/vFWrVinXsxABBBBAAAEEEEAAAQQQyAeBJps1sQaunlMDN90u02DShvUbTQGozZpnduOmfDhPjgEBBOqvQN4Enx5++GHbsGGDHXzwwRYCS4mXZcSIEf7tyy+/7J+7dOninz/77LPEbvHrsLxr167xMl4ggAACCCCAKB42UQAAQABJREFUAAIIIIAAAvkmoOLi39uuk23erpWt+OLrSg/vu2+/84XJN9+ypXXZ/nuV9qcDAoUgUOoOspAehWCaT8eYN8GnECzaYostUvqE5StXrvTrBwwY4J/fe+89H7RKHhTqRe24447Jq3iPAAIIIIAAAggggAACCOSVwIC9+9qWndr64FNF2U+Rm5r3pbsr3hYdNrfu/btam46t8+o8OBgEEEAglUDeBJ+22ur/Cuu98cYbqY7TXn/9db+8W7du/rl79+62/fbb27p162zKlCnlxkyYMMEvO+yww8qtYwECCCCAAAIIIIAAAgggkE8C2+7UzbZx2U9tt25jC95dZN+uWV/u8FTjacmCL23dqm9t6+4dbeeDdyrXhwUIIIBAPgrkTfBp+PDh3kfT6u64444yVq+99prdeOONftnRRx8drxs9erR/fdFFF9nSpUvj5RMnTrSnnnrKevbsaWG78UpeIIAAAggggAACCCCAAAJ5JtCwYUMb/v8Otl4Du/sA1PxZn7gg1Ce2/PMV9tWSlfb5vC9szoyPbP23G6zHjl1t/5N/aF36MOUuzy4jh1MNAVdy3wrpUY1TrZdD8+Zud4MGDbILLrjA39lu1KhRdvvtt1vfvn393e5effVVKy0ttTPPPNP233//+EKddtpp9swzz9ikSZOsT58+tt9++9ny5ctt6tSp1qxZMxs/frwrwpc3pxgfNy8QQAABBBBAAAEEEEAAgWSBzbdsZcf98nD750Ov2EdvLrCvv/yPrflmrbsJXmRNmja2njt1t45d29seR/7AerogFQ0BBBAoFIG8isyMGTPGhgwZYmPHjrWZM2fa3LlzTXer22uvveyMM86w448/voxrgwYN7LHHHrObb77Z3wVPd8nTHfKOOuoou/LKK33wqswA3iCAAAIIIIAAAggggAACeSzQYosWdtjZB9o3K1bZ7Ffm2gqX9bRpY6k137yZ9fp+D5/tVOLujEdDAAEECkmgxEXRldlGq0CgX79+fu3s2bMr6MUqBBBAAAEEEEAAAQQQQAABBGpGoL78DtV5btr0pU179dSagaujrey5293WsGFHI06QGXheZT5ldsj0QgABBBBAAAEEEEAAAQQQQACBYhFQRkypFVZGH1k82X368qbgeHaHTW8EEEAAAQQQQAABBBBAAAEEEEAAgUIQIPhUCFeJY0QAAQQQQAABBBBAAAEEEEAAAQQKVIDgU4FeOA4bAQQQQAABBBBAAAEEEEAAAQQQKAQBaj4VwlXiGBFAAAEEEEAAAQQQQAABBBAoYgFuhVbEF9edGplPxX19OTsEEEAAAQQQQAABBBBAAAEEEEAgpwIEn3LKz84RQAABBBBAAAEEEEAAAQQQQACB4hZg2l1xX1/ODgEEEEAAAQQQQAABBBBAAIG8FyjN+yPkAKsjQOZTdfQYiwACCCCAAAIIIIAAAggggAACCCBQoQDBpwp5WIkAAggggAACCCCAAAIIIIAAAgggUB0Bgk/V0WMsAggggAACCCCAAAIIIIAAAggggECFAtR8qpCHlQgggAACCCCAAAIIIIAAAgggUNsCkZXU9i7Yfg4FyHzKIT67RgABBBBAAAEEEEAAAQQQQAABBIpdgOBTsV9hzg8BBBBAAAEEEEAAAQQQQAABBBDIoQDT7nKIz64RQAABBBBAAAEEEEAAAQQQqO8CkQMoLbBpdzpmWuYCZD5lbkVPBBBAAAEEEEAAAQQQQAABBBBAAIEsBQg+ZQlGdwQQQAABBBBAAAEEEEAAAQQQQACBzAUIPmVuRU8EEEAAAQQQQAABBBBAAAEEEEAAgSwFqPmUJRjdEUAAAQQQQAABBBBAAAEEEECgZgWooVSznvm2NTKf8u2KcDwIIIAAAggggAACCCCAAAIIIIBAEQkQfCqii8mpIIAAAggggAACCCCAAAIIIIAAAvkmQPAp364Ix4MAAggggAACCCCAAAIIIIAAAggUkQA1n4roYnIqCCCAAAIIIIAAAggggAACCBSeQImVWkmBHXahHW9uecl8yq0/e0cAAQQQQAABBBBAAAEEEEAAAQSKWoDgU1FfXk4OAQQQQAABBBBAAAEEEEAAAQQQyK0A0+5y68/eEUAAAQQQQAABBBBAAAEEEKj3AlHENLZi/hCQ+VTMV5dzQwABBBBAAAEEEEAAAQQQQAABBHIsQPApxxeA3SOAAAIIIIAAAggggAACCCCAAALFLEDwqZivLueGAAIIIIAAAggggAACCCCAAAII5FiAmk85vgDsHgEEEEAAAQQQQAABBBBAAIH6LBC5ky+1wqr5pGOmZS5A5lPmVvREAAEEEEAAAQQQQAABBBBAAAEEEMhSgOBTlmB0RwABBBBAAAEEEEAAAQQQQAABBBDIXIBpd5lb0RMBBBBAAAEEEEAAAQQQQAABBGpBoDQqrGl3tUBQ1Jsk86moLy8nhwACCCCAAAIIIIAAAggggAACCORWgOBTbv3ZOwIIIIAAAggggAACCCCAAAIIIFDUAky7K+rLy8khgAACCFQmsHTRMluyYKlt+G6jbda8iXXZvrNtvmWryoaxHgEEEEAAAQQQQAABBDIUIPiUIRTdEEAAAQSKRyCKIvtw5gJ78++z7LOPFtvqlWustLTUGjVqaK1c4GnbAd1s8CEDbeseHYvnpDkTBBBAAAEEEEAgjwUio+ZTHl+eah8awadqE7IBBBBAAIFCElDg6eXHXrV/T3nTvli41L75apW12KK5NWrc0L77doMLRn1hX3y81Ba8s9AOOm1f67vrdoV0ehwrAggggAACCCCAAAJ5J0DwKe8uCQeEAAIIIFCbAjP+9pa9OvkNWzDrE2u7VWvrs0tPa9Tkf/85XL92vX35yTKb9/ZCK73rBWveqpl167dNbR4S20YAAQQQQAABBBBAoKgFKDhe1JeXk0MAAQQQSBRYt+Zbl/E00xbO/tQ6dm1vW3XrUCbwpL5Nmze1bfp8z5q1aGqffbjYpj3+milbioYAAggggAACCCCAAAJVEyD4VDU3RiGAAAIIFKDA7Ffm2sovvraGDRv4rKd0p1BSUuLrPa1ascYVI//SFs//Il1XliOAAAIIIIAAAghUU0D/zFfqaj4V0oN/mszuohN8ys6L3ggggAACBSzw4RvzbcWX/7Ett25jCjBV1Bq64uOt27Wyla7/h28sqKgr6xBAAAEEEEAAAQQQQKACAYJPFeCwCgEEEECguATWfrPWNrii4pu12CyjE1O/Des32LpV6zLqTycEEEAAAQQQQAABBBAoL/C/Cqvl17EEAQQQQACBohJo4KbbKeEp0xpO6qcMKY2jIYAAAggggAACCNSWwP9NuautrdfOdivOoq+dfRbuVvm/6cK9dhw5AggggECWAm3ddLvmmze3b1aszmik+jVrtZm16bhFRv3phAACCCCAAAIIIIAAAuUFCD6VN2EJAggggECRCuyw5/amAJSKjm/aVFrhWa5b/a2tX7PeBZ5aW98hvSvsy0oEEEAAAQQQQAABBBBIL0DwKb0NaxBAAAEEikyg+w5drEOXdtayTQtb9MFnVlqaOgClOk+L5nxu7bu2s16DelirNi2LTILTQQABBBBAAAEEEECg7gSo+VR31uwJAQQQQCDHAg0aNLBDfrKvrfl6jS149xOb99bHtmWntta6/ea+rtPG7zbaCpcV9dWSlT5DqscOXW2f44bk+KjZPQIIIIAAAgggUPwCUfGfYr0+Q4JP9fryc/IIIIBA/RPotO1WduR5Q23y2Odt2afL7avFK23xvC88REmDEtvCBaK69d/GOvfqZIefc4i12KJF/UPijBFAAAEEEEAAAQQQqEEBgk81iMmmEEAAAQQKQ6Dzdp3s1N8eb++/+qHNmjrbVn75tZVuinz20/d6bmUD9u5nPQd2t4aNGhbGCXGUCCCAAAIIIIAAAgjksQDBpzy+OBwaAggggEDtCWzWvKkN2m8HG7hvf1u/7jvTlLsmzZpYk6aNa2+nbBkBBBBAAAEEEEAgpUCpUZI6JUyRLCT4VCQXktNAAAEEEKiaQElJiSkQZXrQEEAAAQQQQAABBBBAoMYFCC3WOCkbRAABBBBAAAEEEEAAAQQQQAABBBAIAgSfggTPCCCAAAIIIIAAAggggAACCCCAAAI1LsC0uxonZYMIIIAAAggggAACCCCAAAIIIJCpQOQ6lkYlmXbPi346ZlrmAmQ+ZW5FTwQQQAABBBBAAAEEEEAAAQQQQACBLAUIPmUJRncEEEAAAQQQQAABBBBAAAEEEEAAgcwFCD5lbkVPBBBAAAEEEEAAAQQQQAABBBBAAIEsBQg+ZQlGdwQQQAABBBBAAAEEEEAAAQQQqFmByEqskB41dfYzZ860a665xo488kjr3LmzlZSU+Ee227/nnnvisWEbqZ7vu+++Mpv+8Y9/XOG4sWPHlulf1TcUHK+qHOMQQAABBBBAAAEEEEAAAQQQQACBaghcffXV9uSTT1ZjC/83tGfPnjZy5MiU2/nPf/5jTzzxhF+3xx57pOxz0EEH2VZbbVVuXe/evcstq8oCgk9VUWMMAggggAACCCCAAAIIIIAAAgggUE2B3XbbzXbccUfbZZdd/KNbt262fv36rLeqoFK6wNIdd9zhg0+777679ejRI+W2f/nLX9ree++dcl1NLCT4VBOKbAMBBBBAAAEEEEAAAQQQQAABBKosUOqm3dXHdvHFF9f6aY8fP97v4+STT671faXbATWf0smwHAEEEEAAAQQQQAABBBBAAAEEEChggY8//timT59uTZo0sREjRuTsTMh8yhk9O0YAAQQQQAABBBBAAAEEEEAAAQRqTyBkPQ0dOtTatGmTdkcTJ060xx9/3DZt2mTdu3e3ww47zPr06ZO2f7YrCD5lK0Z/BBBAAAEEEEAAAQQQQAABBBCo9wLz58+3fv36pXSYPXt2yuV1vTAEnyqbcnfrrbeWOTRNB/zpT39qN998szVqVP3QEdPuyvDyBgEEEEAAAQQQQAABBBBAAAEE6lagxCJX86mQHlYANapmzJhhH374obVt29aU+ZSqDRw40MaOHev7rV271hYsWGC33367tW7d2v70pz/ZhRdemGpY1suqH77KepcMQAABBBBAAAEEEEAAAQQQQAABBApbYNttt7V8yXBKJRmynlTrSTWfUrVzzz23zGJNuRs1apTttddeNmjQILvtttts9OjRts0225Tpl+0bMp+yFaM/AggggAACCCCAAAIIIIAAAgggkMcCGzdutEceecQfYWVT7lKdhqYTDhs2zLSdF154IVWXrJYRfMqKi84IIIAAAggggAACCCCAAAIIIIBAfgs8//zztnTpUuvRo4cNGTKkSgfbq1cvP27JkiVVGp84iGl3iRq8RgABBBBAAAEEEEAAAQQQQACBOhWI3N5Ko5I63Wd1d6ZjzucWptyddNJJVT7MlStX+rEtWrSo8jbCQDKfggTPCCCAAAIIIIAAAggggAACCCCAQIELrF692p588kl/FlUNPq1fv96mTJnit6HaT9VtBJ+qK8h4BBBAAAEEEEAAAQQQQAABBBBAoA4EVAC8T58+dskll6Td28SJE013rtt1110tTJ1L1XnOnDl2//33mwJNiW3ZsmV23HHH2aeffmoDBgyw3XffPXF1lV4z7a5KbAxCAAEEEEAAAQQQQAABBBBAAIGaEoissKbd1dR5K7vo6quvjjf33Xff+dcKHIX261//2oYOHerfLl++3ObOnWsV1WEKU+4qKzT+xRdf2CmnnGK6493OO+9s7du3t8WLF9vMmTNt1apV1rlzZ3v00UetpKT614bgU7iaPCOAAAIIIIAAAggggAACCCCAAAJ1KKAso3//+9/l9pi4TH0ybQpK/fOf/7TGjRvbscceW+Gw7bbbzs477zx77bXX7N1337WvvvrKmjZtalp+2GGH+aBUmzZtKtxGpitLItcy7Vxf++kWg2qzZ8+urwScNwIIIIAAAggggAACCCCAQB0K1JffoTrPdZuW28Mvn1eHutXf1XE/vMmaNWxHnCBDSmo+ZQhFNwQQQAABBBBAAAEEEEAAAQQQQACB7AWYdpe9GSMQQAABBBBAAAEEEEAAAQQQQKCmBNx8rNKo+nWFaupwMtoOc8gyYgqdyHwKEjwjgAACCCCAAAIIIIAAAggggAACCNS4AMGnGidlgwgggAACCCCAAAIIIIAAAggggAACQYBpd0GCZwQQQAABBBBAAAEEEEAAAQQQyIlAZAU27S4nSoW7UzKfCvfaceQIIIAAAggggAACCCCAAAIIIIBA3gsQfMr7S8QBIoAAAggggAACCCCAAAIIIIAAAoUrQPCpcK8dR44AAggggAACCCCAAAIIIIAAAgjkvQA1n/L+EnGACCCAAAIIIIAAAggggAACCBSvQOROrbTAaj7pmGmZC5D5lLkVPRFAAAEEEEAAAQQQQAABBBBAAAEEshQg+JQlGN0RQAABBBBAAAEEEEAAAQQQQAABBDIXIPiUuRU9EUAAAQQQQAABBBBAAAEEEEAAAQSyFKDmU5ZgdEcAAQQQQAABBBBAAAEEEEAAgZoUKLGowGo+WcEdb01er+y3ReZT9maMQAABBBBAAAEEEEAAAQQQQAABBBDIUIDgU4ZQdEMAAQQQQAABBBBAAAEEEEAAAQQQyF6AaXfZmzECAQQQQAABBBBAAAEEEEAAAQRqUKA0KqnBrbGpfBMg8ynfrgjHgwACCCCAAAIIIIAAAggggAACCBSRAMGnIrqYnAoCCCCAAAIIIIAAAggggAACCCCQbwIEn/LtinA8CCCAAAIIIIAAAggggAACCCCAQBEJUPOpiC4mp4IAAggggAACCCCAAAIIIIBAoQlE7oBLrbBqPumYaZkLkPmUuRU9EUAAAQQQQAABBBBAAAEEEEAAAQSyFCD4lCUY3RFAAAEEEEAAAQQQQAABBBBAAAEEMhdg2l3mVvREAAEEEEAAAQQQQAABBBBAAIFaEIgKbNpdLRAU9SbJfCrqy8vJIYAAAggggAACCCCAAAIIIIAAArkVyMvg07Jly+yCCy6w3r17W7Nmzaxt27Y2aNAgu/DCC1NqTZ482fbaay/bfPPN/WPvvfe2KVOmpOzLQgQQQAABBBBAAAEEEEAAAQQQQACBuhPIu+DTzJkzbfvtt7frr7/eGjdubMOHD7ddd93VVqxYYTfeeGM5mZtuusmGDRtm06dPt91339323XdfmzFjhh166KF22223levPAgQQQAABBBBAAAEEEEAAAQQQQACBuhPIq5pPyng6+OCDbd26dfbkk0/6oFIihYJKiW3u3Lk+Q6pp06b24osv2m677eZXf/jhhzZkyBA7//zz/fZ69uyZOIzXCCCAAAIIIIAAAggggAACCCCQRwKl1HzKo6tR84eSV5lPl19+uS1fvtzGjBlTLvCkUx88eHAZgZtvvtk2bdpkZ599dhx4UoftttvOLrvsMtu4caOpDw0BBBBAAAEEEEAAAQQQQAABBBBAIDcCeRN8UrbT+PHjrUWLFnbqqadmpBHqOh199NHl+odlqgdFQwABBBBAAAEEEEAAAQQQQAABBBDIjUDeTLt74403bNWqVbbHHnv4IuN/+9vf7O9//7t9++23PpNpxIgR1qlTp1jp66+/tkWLFvn3AwcOjJeHF9tss421a9fOPvnkE/vmm298IfKwjmcEEEAAAQQQQAABBBBAAAEEEEAAgboRyJvg0/vvv+/PuEOHDnb44Yf7mk+JBJdeeqnddddddvzxx/vFIfDUpk0bny2V2De87ty5s5/GpwDUDjvsEBanfe7Xr1/KdfPnz7dtt9025ToWIoAAAggggAACCCCAAAIIIIBA9QSiqKR6G2B0XgvkzbS7lStXeqinnnrKnn32Wbv99ttt6dKltnDhQl9UXNPyRo4caW+//bbvt3r1av/cvHnztMCawqemjCoaAggggAACCCCAAAIIIIAAAggggEDdC+RN5lNpaak/exUJ/93vfmejRo2KNVSAXNlLjz32mC9G/sADD8TravLF7NmzU24uXUZUys4sRAABBBBAAAEEEEAAAQQQQAABBBCIBfIm86lly5bxQaUqOB6WTZ061fcL/deuXRuPS36xZs0av6hVq1bJq3iPAAIIIIAAAggggAACCCCAAAJ5IBBZiZUW2EPHTMtcIG+CT127dvVHrWl07du3L3cG3bp188s0FU+tS5cu/lnT9UKQyS9I+OOzzz7z78K2E1bxEgEEEEAAAQQQQAABBBBAAAEEEECgDgTyJvgU7lin2k7r168vd+orVqzwy0LGU+vWreMA1FtvvVWu/6effuqLjSvwtPnmm5dbzwIEEEAAAQQQQAABBBBAAAEEEEAAgdoXyJvgkzKZBgwYYFEUWZhal3j6YVkIUmnd0KFDfZcJEyYkdi2z7LDDDiu3jgUIIIAAAggggAACCCCAAAIIIIAAAnUjkDfBJ53uRRdd5M/6ggsusCVLlsQCusPd9ddf79+fffbZ8fJzzz3XGjZsaGPHjrXXXnstXv7RRx/5ouWNGjUy9aEhgAACCCCAAAIIIIAAAggggED+CkRRiUtGKZxH/krm55Hlzd3uxHPCCSfY888/b/fee6/17dvXhgwZYpqGN336dD8V74wzzrBjjjkmluzdu7e/+93o0aNtzz33tAMOOMCaNGnit6Fxt9xyi/Xs2TPuzwsEEEAAAQQQQAABBBBAAAEEEEAAgboVyKvgk0797rvvtt13393uvPNOe+mll6ykpMQGDRpkZ511lo0cObKczvnnn+8DTGPGjLFp06b59TvvvLPPojr00EPL9WcBAggggAACCCCAAAIIIIAAAggggEDdCeRd8EnBJmU46ZFpU10najtlqkU/BBBAAAEEEEAAAQQQQAABBPJLoNRK8uuAOJoaFcirmk81emZsDAEEEEAAAQQQQAABBBBAAAEEEEAg5wIEn3J+CTgABBBAAAEEEEAAAQQQQAABBBBAoHgFCD4V77XlzBBAAAEEEEAAAQQQQAABBBBAAIGcC+Rdzaeci3AACCCAAAIIIIAAAggggAACCCBQpwIRNZ/q1Luud0bmU12Lsz8EEEAAAQQQQAABBBBAAAEEEECgHgkQfKpHF5tTRQABBBBAAAEEEEAAAQQQQAABBOpagOBTXYuzPwQQQAABBBBAAAEEEEAAAQQQQKAeCVDzqR5dbE4VAQQQQAABBBBAAAEEEEAAgXwTiNwBlUYl+XZYFR6PjpmWuQCZT5lb0RMBBBBAAAEEEEAAAQQQQAABBBBAIEsBgk9ZgtEdAQQQQAABBBBAAAEEEEAAAQQQQCBzAabdZW5FTwQQQAABBBBAAAEEEEAAAQQQqAWByApr2l0tEBT1Jsl8KurLy8khgAACCCCAAAIIIIAAAggggAACuRUg+JRbf/aOAAIIIIAAAggggAACCCCAAAIIFLUAwaeivrycHAIIIIAAAggggAACCCCAAAIIIJBbAWo+5dafvSOAAAIIIIAAAggggAACCCBQzwVKrLTgaj5RoyqbDy2ZT9lo0RcBBBBAAAEEEEAAAQQQQAABBBBAICsBgk9ZcdEZAQQQQAABBBBAAAEEEEAAAQQQQCAbAabdZaNFXwQQQAABBBBAAAEEEEAAAQQQqHGBKKrxTbLBPBIg8ymPLgaHggACCCCAAAIIIIAAAggggAACCBSbAMGnYruinA8CCCCAAAIIIIAAAggggAACCCCQRwIEn/LoYnAoCCCAAAIIIIAAAggggAACCCCAQLEJUPOp2K4o54MAAggggAACCCCAAAIIIIBAAQmo3FOpFVZuDCWqsvuAFdbVze7c6I0AAggggAACCCCAAAIIIIAAAgggkGMBgk85vgDsHgEEEEAAAQQQQAABBBBAAAEEEChmAYJPxXx1OTcEEEAAAQQQQAABBBBAAAEEEEAgxwLUfMrxBWD3CCCAAAIIIIAAAggggAACCNRrAVdAKSq0IkqFdrw5/oCR+ZTjC8DuEUAAAQQQQAABBBBAAAEEEEAAgWIWIPhUzFeXc0MAAQQQQAABBBBAAAEEEEAAAQRyLMC0uxxfAHaPAAIIIIAAAggggAACCCCAQH0XiKykvhMU9fmT+VTUl5eTQwABBBBAAAEEEEAAAQQQQAABBHIrQPApt/7sHQEEEEAAAQQQQAABBBBAAAEEEChqAYJPRX15OTkEEEAAAQQQQAABBBBAAAEEEEAgtwLUfMqtP3tHAAEEEEAAAQQQQAABBBBAoN4LlFLzqag/A2Q+FfXl5eQQQAABBBBAAAEEEEAAAQQQQACB3AoQfMqtP3tHAAEEEEAAAQQQQAABBBBAAAEEilqA4FNRX15ODgEEEEAAAQQQQAABBBBAAAEEEMitADWfcuvP3hFAAAEEEEAAAQQQQAABBBCo9wJRVFLvDYoZgMynYr66nBsCCCCAAAIIIIAAAggggAACCCCQYwGCTzm+AOweAQQQQAABBBBAAAEEEEAAAQQQKGYBpt0V89Xl3BBAAAEEEEAAAQQQQAABBBDIc4HISkyPQmqFdry5tiXzKddXgP0jgAACCCCAAAIIIIAAAggggAACRSxA8KmILy6nhgACCCCAAAIIIIAAAggggAACCORagOBTrq8A+0cAAQQQQAABBBBAAAEEEEAAAQSKWICaT0V8cTk1BBBAAAEEEEAAAQQQQAABBApBoLQQDpJjrLIAmU9VpmMgAggggAACCCCAAAIIIIAAAggggEBlAgSfKhNiPQIIIIAAAggggAACCCCAAAIIIIBAlQWYdldlOgYigAACCCCAAAIIIIAAAggggEBNCERRSU1shm3kqQCZT3l6YTgsBBBAAAEEEEAAAQQQQAABBBBAoBgECD4Vw1XkHBBAAAEEEEAAAQQQQAABBBBAAIE8FSD4lKcXhsNCAAEEEEAAAQQQQAABBBBAAAEEikGAmk/FcBU5BwQQQAABBBBAAAEEEEAAAQQKWKCUmk8FfPUqP3Qynyo3ogcCCCCAAAIIIIAAAggggAACCCCAQBUFCD5VEY5hCCCAAAIIIIAAAggggAACCCCAAAKVCxB8qtyIHggggAACCCCAAAIIIIAAAggggAACVRSg5lMV4RiGAAIIIIAAAggggAACCCCAAALVF4jcJiIrqf6G6nALOmZa5gJkPmVuRU8EEEAAAQQQQAABBBBAAAEEEEAAgSwFCD5lCUZ3BBBAAAEEEEAAAQQQQAABBBBAAIHMBQg+ZW5FTwQQQAABBBBAAAEEEEAAAQQQqAWBUrfNQnrUFMHMmTPtmmuusSOPPNI6d+5sJSUl/lGV7Xfr1i0eH7aT+DxnzpyUm920aZPdeOONtsMOO1izZs2sffv2NmLECPvggw9S9q/KQmo+VUWNMQgggAACCCCAAAIIIIAAAggggEA1Ba6++mp78sknq7mVssNHjhxZdsF/322xxRbllpeWltoxxxxjkyZNstatW9vQoUNt+fLlNmHCBJsyZYq9+OKLNnjw4HLjsl1A8ClbMfojgAACCCCAAAIIIIAAAggggAACNSCw22672Y477mi77LKLfyh7af369dXa8j333JPx+HHjxvnAU69evWzatGnWsWNHP/bxxx+3o48+2k488USfAdWoUfXCR9UbnfHp0BEBBBBAAAEEEEAAAQQQQAABBBBAIFHg4osvTnxb569vuOEGv88//vGPceBJC4466igbNmyYPfXUUz4zS++r06j5VB09xiKAAAIIIIAAAggggAACCCCAQLUFoqiBFdKj2iecBxv4+OOPfVaT6jxpul1yU+aT2uTJk5NXZf2ezKesyRiAAAIIIIAAAggggAACCCCAAAII5KfAmDFjbP78+da0aVPr16+fHXHEEb6IePLRvvPOO35R//79rXHjxsmrbdCgQX7ZrFmzyq3LdgHBp2zF6I8AAggggAACCCCAAAIIIIAAAvVeQAEeBXdStdmzZ6daXCfLLrroojL7Of/88+3WW2+10047rczyRYsW+fe6y16qFpZ/8sknqVZntYxpd1lx0RkBBBBAAAEEEEAAAQQQQAABBGpaIHIbLKRHTZ9/TWxPNZomTpxoChatXbvW3nvvPRs9erQvYH766aeXu6ve6tWr/W6bN2+ecvctWrTwy1etWpVyfTYLyXzKRou+CCCAAAIIIIAAAggggAACCCCAgBPYdtttLZcZTskX4ZZbbimzSFlZ119/vfXp08fOPPNMU3Hz4cOHl+lTV2/IfKorafaDAAIIIIAAAggggAACCCCAAAII1LHAT37yE+vQoYPNnTvXFi5cGO+9ZcuW/rWypFK1NWvW+MWtWrVKtTqrZQSfsuKiMwIIIIAAAggggAACCCCAAAIIIFA4Ag0aNPBZWjriJUuWxAfepUsX//qzzz6LlyW+CMu7du2auLhKr5l2VyU2BiGAAAIIIIAAAggg8P/Zuxc4q8s6cfyfgeEOiSh4QxQQRSlQLJPUdM20lUXyWm031K5a6VJp7opW2q5bSZJYtv5St3xVBoqKuJWmmeGFhBQlRQUDEQxQIO7X8z/fb838GeYMM3PmzJzLvL/7Os73PPfn/fh69fKzz/McAgQIECBQGIGq7H1PVYVpqs1aKa/xrlq1KpWpuccp+TJixIg0LbkbauvWrfV+8W7OnDlp/vDhw9O/LfmHnU8t0VOXAAECBAgQIECAAAECBAgQIFDCAsm9VMmRu+Ri8eT+p5pn4MCBcfjhh8fGjRtjxowZNcm1f6dOnZq+jxkzpjYt3xfBp3zl1CNAgAABAgQIECBAgAABAgQItKHA5MmT0wDSFVdcUafXBx54IB5++OE6acmXuXPnxrnnnhuZTCaSX7zr3LlznTLJr+Elz2WXXRbLly+vzUt+Ne++++6LQw45pCCXlDt2V0vrhQABAgQIECBAgAABAgQIECDQdgLJjqNrrrmmtsMtW7ak78cee2xt2oQJE2L06NHp95UrV6a7mHa+uynJmDVrVnzjG9+I5H6m5Dhdsstp4cKFkRyd27ZtW5x00klx3XXX1bZZ83LBBRdEEriaNm1aGtR63/veF0kfjz76aHTr1i3uuOOOqK5ueeio5S3UjNhfAgQIECBAgAABAgQIECBAgEAzBTLZ8tmNOWX1FGq4K1asiKeeeqre3HdOS8o09px22mnx2muvxR//+MeYOXNmrFmzJt72trfF8ccfHx/96Efj/PPPj44dO9ZrJrmMfMqUKTFp0qS49dZb4/7774/kXqizzz47DWYdccQR9erkk1CV3XpVKLN8+i+LOsOGDUvHmZyT9BAgQIAAAQIECBAgQIAAgdYWaC//HZrMc9XWNfHNX/1Xa5MWtP2rPnBF7NlpjxAnaBqrO5+a5qQUAQIECBAgQIAAAQIECBAgQIBAHgKO3eWBpgoBAgQIECBAgAABAgQIECBQIIHseawdmTLbG+MMWbMWv8xWt1lzU5gAAQIECBAgQIAAAQIECBAgQKDIAoJPRV4A3RMgQIAAAQIECBAgQIAAAQIEKllA8KmSV9fcCBAgQIAAAQIECBAgQIAAAQJFFnDnU5EXQPcECBAgQIAAAQIECBAgQKC9C7hCqbL/DbDzqbLX1+wIECBAgAABAgQIECBAgAABAkUVEHwqKr/OCRAgQIAAAQIECBAgQIAAAQKVLeDYXWWvr9kRIECAAAECBAgQIECAAIGSF8hEVcmP0QDzF7DzKX87NQkQIECAAAECBAgQIECAAAECBBoREHxqBEg2AQIECBAgQIAAAQIECBAgQIBA/gKCT/nbqUmAAAECBAgQIECAAAECBAgQINCIgDufGgGSTYAAAQIECBAgQIAAAQIECLSuQCbTuu1rvbgCdj4V11/vBAgQIECAAAECBAgQIECAAIGKFhB8qujlNTkCBAgQIECAAAECBAgQIECAQHEFBJ+K6693AgQIECBAgAABAgQIECBAgEBFC7jzqaKX1+QIECBAgAABAgQIECBAgEBpCyTXPWWiqrQHucvoXFG1C0gjX+18agRINgECBAgQIECAAAECBAgQIECAQP4Cgk/526lJgAABAgQIECBAgAABAgQIECDQiIBjd40AySZAgAABAgQIECBAgAABAgRaV2BHpryO3bWuRuW1budT5a2pGREgQIAAAQIECBAgQIAAAQIESkZA8KlklsJACBAgQIAAAQIECBAgQIAAAQKVJyD4VHlrakYECBAgQIAAAQIECBAgQIAAgZIRcOdTySyFgRAgQIAAAQIECBAgQIAAgfYpkMm0z3m3l1mX9M6nN998M/r16xdVVVVxyCGH7HZNbr/99jjmmGOiZ8+e0adPnzj99NPj8ccf320dmQQIECBAgAABAgQIECBAgAABAq0rUNLBpy9/+cuxcuXKRgUuvfTSOP/88+P555+PU045JQ1CPfjgg/He97437rnnnkbrK0CAAAECBAgQIECAAAECBAgQINA6AiUbfPrtb38b//u//xuf/vSndzvzhx56KCZNmhR77bVXPPvss2mw6Ve/+lX8/ve/j44dO6ZBqdWrV++2DZkECBAgQIAAAQIECBAgQIAAAQKtI1CSwaeNGzfGZz/72TjiiCPiK1/5ym5nPnHixDT/yiuvjCFDhtSWHTVqVHzuc5+LJPD04x//uDbdCwECBAgQIECAAAECBAgQIFBKAlWRifL6RHa8nqYLlGTw6Rvf+EYsXLgwbr755ujUqVODs0mCVA8//HCaf84559QrV5M2ffr0enkSCBAgQIAAAQIECBAgQIAAAQIEWl+g5IJPc+fOjeuvvz49LnfCCSfsVmD+/PmxefPm6Nu3b/Tv379e2ZEjR6ZpSZseAgQIECBAgAABAgQIECBAgACBtheobvsuG+5xx44d8alPfSp69+4d3/72txsu+I+cxYsXp2+5Ak9JRo8ePdK2Vq1aFWvXro1evXr9o2buP8OGDcuZsWDBghg8eHDOPIkECBAgQIAAAQIECBAgQIBAywQyLauudokLlNTOpxtvvDH++Mc/xne+8530AvHG7NatW5cW6d69e4NFkwBU8iTBJw8BAgQIECBAgAABAgQIECBAgEDbCpTMzqdkF1NyafiJJ54Y48aNa1uFf/Q2b968nP02tCMqZ2GJBAgQIECAAAECBAgQIECAAAECtQIls/Pp4osvji1btqSXjNeOrpGXnj17piU2bNjQYMn169eneY0duWuwARkECBAgQIAAAQIECBAgQIAAAQJ5C5TMzqf7778/vZ/pc5/7XJ3JbNq0Kf3++uuvx0knnZS+/+IXv4h99903BgwYkH5fsmRJ+nfXfySBp9WrV8eee+7Z6H1Pu9b1nQABAgQIECBAgAABAgQIEGh9geS+p0ymqvU7KmAP7qhqHmbJBJ+SYSeBokcffTTnDJIgVE1eTUDqsMMOiy5dusSKFSsiCU4dcMABderOmTMn/T58+PA66b4QIECAAAECBAgQIECAAAECBAi0jUDJHLvLZDLZSGf9z6uvvppKJL82V5N/8MEHp2ndunWLk08+OX2fMmVK+nfnf0ydOjX9OmbMmJ2TvRMgQIAAAQIECBAgQIAAAQIECLSRQMkEn/Kd7/jx49Oq1157bbz88su1zTzxxBPxox/9KD3Kd+GFF9ameyFAgAABAgQIECBAgAABAgRKS2BHdjjl9CktvdIfTdkHn0455ZS45JJL4s0334wjjzwyPvjBD8bpp58e733ve2Pbtm1x2223pQGo0l8KIyRAgAABAgQIECBAgAABAgQIVJ5A2QefkiW54YYb0iDT4YcfHg8++GAku56SoNTvf//7NBhVectmRgQIECBAgAABAgQIECBAgACB8hAoqQvHc5El9zsldz019owbNy6Sj4cAAQIECBAgQIAAAQIECBAgQKB0BEo++FQ6VEZCgAABAgQIECBAgAABAgQIFFwgu98kk6kqeLOt2mDje2Ratftya7wijt2VG7rxEiBAgAABAgQIECBAgAABAgTai4DgU3tZafMkQIAAAQIECBAgQIAAAQIECBRBQPCpCOi6JECAAAECBAgQIECAAAECBAi0FwF3PrWXlTZPAgQIECBAgAABAgQIECBQqgLldudTqTqW6LjsfCrRhTEsAgQIECBAgAABAgQIECBAgEAlCAg+VcIqmgMBAgQIECBAgAABAgQIECBAoEQFHLsr0YUxLAIECBAgQIAAAQIECBAg0F4EdrSXibbTedr51E4X3rQJECBAgAABAgQIECBAgAABAm0hIPjUFsr6IECAAAECBAgQIECAAAECBAi0UwHBp3a68KZNgAABAgQIECBAgAABAgQIEGgLAXc+tYWyPggQIECAAAECBAgQIECAAIGcAplsaiaqcuaVamIyZk/TBex8arqVkgQIECBAgAABAgQIECBAgAABAs0UEHxqJpjiBAgQIECAAAECBAgQIECAAAECTRdw7K7pVkoSIECAAAECBAgQIECAAAECrSHgHFtrqJZMm3Y+lcxSGAgBAgQIECBAgAABAgQIECBAoPIEBJ8qb03NiAABAgQIECBAgAABAgQIECBQMgKCTyWzFAZCgAABAgQIECBAgAABAgQIEKg8AXc+Vd6amhEBAgQIECBAgAABAgQIECgrgR1RVVbjNdjmCdj51DwvpQkQIECAAAECBAgQIECAAAECBJohIPjUDCxFCRAgQIAAAQIECBAgQIAAAQIEmicg+NQ8L6UJECBAgAABAgQIECBAgAABAgSaIeDOp2ZgKUqAAAECBAgQIECAAAECBAgUWiB731Om3O58KrfxFnrNmteenU/N81KaAAECBAgQIECAAAECBAgQIECgGQKCT83AUpQAAQIECBAgQIAAAQIECBAgQKB5Ao7dNc9LaQIECBAgQIAAAQIECBAgQKDAAplMgRvUXEkJ2PlUUsthMAQIECBAgAABAgQIECBAgACByhIQfKqs9TQbAgQIECBAgAABAgQIECBAgEBJCQg+ldRyGAwBAgQIECBAgAABAgQIECBAoLIE3PlUWetpNgQIECBAgAABAgQIECBAoOwEXPlUdkvWrAHb+dQsLoUJECBAgAABAgQIECBAgAABAgSaIyD41BwtZQkQIECAAAECBAgQIECAAAECBJol4Nhds7gUJkCAAAECBAgQIECAAAECBAotkImqQjepvRISsPOphBbDUAgQIECAAAECBAgQIECAAAEClSYg+FRpK2o+BAgQIECAAAECBAgQIECAAIESEhB8KqHFMBQCBAgQIECAAAECBAgQIECAQKUJuPOp0lbUfAgQIECAAAECBAgQIECAQBkJZLJjzST/KKOnzIZbdFk7n4q+BAZAgAABAgQIECBAgAABAgQIEKhcAcGnyl1bMyNAgAABAgQIECBAgAABAgQIFF1A8KnoS2AABAgQIECAAAECBAgQIECAAIHKFXDnU+WurZkRIECAAAECBAgQIECAAIGyEMhEVVmM0yDzE7DzKT83tQgQIECAAAECBAgQIECAAAECBJogIPjUBCRFCBAgQIAAAQIECBAgQIAAAQIE8hNw7C4/N7UIECBAgAABAgQIECBAgACBQghkIjLZT1k95TbeIuPa+VTkBdA9AQIECBAgQIAAAQIECBAgQKCSBQSfKnl1zY0AAQIECBAgQIAAAQIECBAgUGQBwaciL4DuCRAgQIAAAQIECBAgQIAAAQKVLODOp0peXXMjQIAAAQIECBAgQIAAAQLlIJCpKodRGmOeAnY+5QmnGgECBAgQIECAAAECBAgQIECAQOMCgk+NGylBgAABAgQIECBAgAABAgQIECCQp4Bjd3nCqUaAAAECBAgQIECAAAECBAgURiBTmGa0UqICdj6V6MIYFgECBAgQIECAAAECBAgQIECgEgQEnyphFc2BAAECBAgQIECAAAECBAgQIFCiAoJPJbowhkWAAAECBAgQIECAAAECBAgQqAQBdz5VwiqaAwECBAgQIECAAAECBAgQKGOBTKaqjEdv6I0J2PnUmJB8AgQIECBAgAABAgQIECBAgACBvAUEn/KmU5EAAQIECBAgQIAAAQIECBAgQKAxAcGnxoTkEyBAgAABAgQIECBAgAABAgQI5C0g+JQ3nYoECBAgQIAAAQIECBAgQIBAIQQy2UbK6VOIOSdtzJ49O6677ro466yzon///lFVVZV+mtv+6tWr42c/+1l85CMfiYEDB0bnzp2jV69e8e53vzsmTZoUW7duzdnkuHHjavus6XvnvzfffHPOes1NdOF4c8WUJ0CAAAECBAgQIECAAAECBAgUQOCaa66Je++9t8Utffe7341vfetbaSDpyCOPTINOK1asiJkzZ8asWbNi6tSp8etf/zq6d++es6/TTjst9t1333p5hx12WL20fBIEn/JRU4cAAQIECBAgQIAAAQIECBAg0EKBUaNGxfDhw+Nd73pX+jn44INj8+bNzW61R48ecdlll8XFF18cAwYMqK3/8ssvxymnnBJ/+MMf4tprr43//M//rM3b+eVrX/tanHTSSTsnFfRd8KmgnBojQIAAAQIECBAgQIAAAQIEmi2QnLlrh8/ll19ekFlfccUVOdsZMmRIeqzvX//1X+PnP/95g8GnnJULmOjOpwJiaooAAQIECBAgQIAAAQIECBAgUEoCI0aMSIezdOnSog3Lzqei0euYAAECBAgQIECAAAECBAgQINC6AgsXLkw7yHWnU03Pd999d9x1112xffv29MLyMWPGxNChQ2uyW/xX8KnFhBogQIAAAQIECBAgQIAAAQIE2pvAggULYtiwYTmnPW/evJzpxUhMfu0uecaOHdtg9zfeeGOdvOQ44Oc///n0l/Kqq1seOnLsrg6vLwQIECBAgAABAgQIECBAgEBbCiTXPWUyVeX1aUugFvR18803x0MPPRS9e/eO5FLxXZ+jjjoqkjIvvfRSbNiwIZJdUjfddFNa/gc/+EF89atf3bVKXt+rMtknr5rtqFJNJLOUIpftiN9UCRAgQIAAAQIECBAg0O4E2st/hybzXL5pbXx+yg/Kao1/eO5F0a9rryh0nKBr167pr90VIlTz2GOPpb90t3Xr1vRI3Zlnntlk42ReI0eOjB07dqQBqQMPPLDJdXMVtPMpl4o0AgQIECBAgAABAgQIECBAgECZCjz//PPpMbstW7akR+eaE3hKppwEBc8444zYtm1b/Pa3v22xguBTiwk1QIAAAQIECBAgQIAAAQIECBAoDYFXX301Tj311Fi1alV8/etfjy9+8Yt5DWzIkCFpvWXLluVVf+dKgk87a3gnQIAAAQIECBAgQIAAAQIECJSpQBIoev/73x/J30suuSSuvvrqvGeSBK+Sp0ePHnm3UVNR8KlGwl8CBAgQIECAAAECBAgQIECAQJkKJMGi0047LZJf4Tv//PPje9/7Xt4z2bx5c8yYMSOtn9z91NJH8KmlguoTIECAAAECBAgQIECAAAECBNpAYPLkyTF06NC44oor6vSW/FLd6NGj47nnnovzzjsvbrnllqiqqqpTZtcvL774Yvz0pz9NLzjfOW/FihXx4Q9/OF577bUYMWJEHHfccTtn5/VenVctlQgQIECAAAECBAgQIECAAAECBRGoikzsPlBSkG4K2khhxpvsLrrmmmtqR5ZcEJ48xx57bG3ahAkT0sBSkrBy5cqYP39+eqyutkD25T/+4z/iiSeeiI4dO0Z1dXVceOGFO2fXvt9+++2172+88UZ84hOfSI/nvfOd74y+ffvG0qVLY/bs2bF27dro379//PKXv2w0iFXb4G5eBJ92gyOLAAECBAgQIECAAAECBAgQINBaAskuo6eeeqpe8zunJWUae2ruZ9q+fXv87Gc/a7D4zsGnQw89NC699NJ48skn0x1Tb775ZnTp0iWS9DFjxqRBqT333LPBtpqTUZXJPs2p0B7LJj8xmDzz5s1rj9M3ZwIECBAgQIAAAQIECBBoY4H28t+hyTyXb1oXn5vygzYWbll3N597UfTr2lOcoImM7nxqIpRiBAgQIECAAAECBAgQIECAAAECzRdw7K75ZmoQIECAAAECBAgQIECAAAEChRRwJquQmiXXlp1PJbckBkSAAAECBAgQIECAAAECBAgQqBwBwafKWUszIUCAAAECBAgQIECAAAECBAiUnIBjdyW3JAZEgAABAgQIECBAgAABAgTal4BTd5W93nY+Vfb6mh0BAgQIECBAgAABAgQIECBAoKgCgk9F5dc5AQIECBAgQIAAAQIECBAgQKCyBQSfKnt9zY4AAQIECBAgQIAAAQIECBAgUFQBdz4VlV/nBAgQIECAAAECBAgQIECgnQskFz6V26VP5TbeIv8rZudTkRdA9wQIECBAgAABAgQIECBAgACBShYQfKrk1TU3AgQIECBAgAABAgQIECBAgECRBQSfirwAuidAgAABAgQIECBAgAABAgQIVLKAO58qeXXNjQABAgQIECBAgAABAgQIlIFAJlNVBqM0xHwF7HzKV049AgQIECBAgAABAgQIECBAgACBRgUEnxolUoAAAQIECBAgQIAAAQIECBAgQCBfAcGnfOXUI0CAAAECBAgQIECAAAECBAgQaFRA8KlRIgUIECBAgAABAgQIECBAgAABAgTyFRB8yldOPQIECBAgQIAAAQIECBAgQIAAgUYFBJ8aJVKAAAECBAgQIECAAAECBAgQIEAgX4HqfCuqR4AAAQIECBAgQIAAAQIECBAoiECmIK1opEQF7Hwq0YUxLAIECBAgQIAAAQIECBAgQIBAJQgIPlXCKpoDAQIECBAgQIAAAQIECBAgQKBEBQSfSnRhDIsAAQIECBAgQIAAAQIECBAgUAkCgk+VsIrmQIAAAQIECBAgQIAAAQIECBAoUYGSCT5t2LAh7rnnnrjwwgvjsMMOi65du0aPHj1ixIgR8c1vfjPWrVvXIOHtt98exxxzTPTs2TP69OkTp59+ejz++OMNlpdBgAABAgQIECBAgAABAgQIECDQNgIlE3z62c9+FmeeeWbceuut0bFjxzjjjDPihBNOiFdffTWuvvrqeNe73hXLly+vp3LppZfG+eefH88//3yccsopaRDqwQcfjPe+971pMKteBQkECBAgQIAAAQIECBAgQIAAAQJtJlDdZj010lGnTp3iM5/5TCTBpMMPP7y29LJly2L06NHxpz/9Kc1LglQ1z0MPPRSTJk2KvfbaK5544okYMmRImpW8n3TSSWlQKvnbu3fvmir+EiBAgAABAgQIECBAgAABAiUmkMlUldiIDKeQAiWz8+mTn/xk/OhHP6oTeEomut9++8VNN92Uzvnuu++OLVu21M5/4sSJ6fuVV15ZG3hKEkaNGhWf+9znYvXq1fHjH/+4trwXAgQIECBAgAABAgQIECBAgACBthUomeDT7qad3PuUPJs3b44333wzfd+4cWM8/PDD6fs555yT/t35HzVp06dP3znZOwECBAgQIECAAAECBAgQIECAQBsKlEXwaeHChSlJcjQvuVA8eebPn58Go/r27Rv9+/dP03b+x8iRI9Ovc+fO3TnZOwECBAgQIECAAAECBAgQIECAQBsKlMydT7ubc3KvU/J84AMfiC5duqTvixcvTv/mCjwlGckv5SV3Pa1atSrWrl0bvXr1Ssvv7h/Dhg3Lmb1gwYIYPHhwzjyJBAgQIECAAAECBAgQIECAQAsFMi2sr3pJC5T8zqcHHnggvbcp2fV0zTXX1GKuW7cufe/evXtt2q4vSQAqeZLgk4cAAQIECBAgQIAAAQIECBAgQKDtBUp659OLL74YH/vYxyKTycR3vvOdqLn7qbWY5s2bl7PphnZE5SwskQABAgQIECBAgAABAgQIECBAoFagZINPr7/+enrMLjk2N378+LjkkktqB5289OzZM/2+YcOGOuk7f1m/fn36tSlH7nau550AAQIECBAgQFnaUYIAAEAASURBVIAAAQIECBBoO4FMVLVdZ3pqc4GSPHb31ltvxamnnhqLFi2K888/P7773e/WgxkwYECatmTJknp5SUISeFq9enXsueeeTbrvKWcjEgkQIECAAAECBAgQIECAAAECBFokUHLBp+Qup3/+53+OP//5z3HWWWfFLbfcElVV9SOghx12WHr5+IoVKyLZJbXrM2fOnDRp+PDhu2b5ToAAAQIECBAgQIAAAQIECBAg0EYCJRV82rx5c4wdOzZmzZoVp512Wvz85z+Pjh075qTo1q1bnHzyyWnelClT6pWZOnVqmjZmzJh6eRIIECBAgAABAgQIECBAgAABAgTaRqBkgk/bt2+Pj3zkI/Hwww/HCSecEHfffXd07tx5twrJXVDJc+2118bLL79cW/aJJ56IH/3oR9G7d++48MILa9O9ECBAgAABAgQIECBAgAABAiUokMmOqZw+JUhYykMqmQvHJ0+eHNOmTUut9t5777joootyuiX3PyX5yXPKKaekF5FPmjQpjjzyyHj/+98fW7ZsiQcffDD9hbzbbrstDUDlbEgiAQIECBAgQIAAAQIECBAgQIBAqwuUTPAp+VW7mqcmCFXzfee/X//612uDT0n6DTfckAaekuBVEnRKdkslQakJEybEe97znp2reidAgAABAgQIECBAgAABAgQIEGhjgZIJPiVBpeSTzzNu3LhIPh4CBAgQIECAAAECBAgQIECAAIHSEiiZ4FNpsZTXaDI7/hax9bmIHauzA8/+MmCHPSI6jYiqDj3LayJGS4AAAQIECBAgQIAAAQIECFScgOBTGS9pZsdbEZt+E5mt87KBpzezl7NtzM4mG3yq6pYNQP06G4B6e0TXU7NBqN5lPEtDJ0CAAAECBAgQIECAAAECBMpZQPCpTFcvs31ZZNbfHrHtlWzg6a/ZWSQBp2SnU/bnAbZnv29fHEmZ2PZqRI/zo6pjvzKdqWETIECAAAECBAgQIECAAAEC5Swg+FSGq5fZsS4bePpJNrCU7HjK7naqPiy726n7/z+TjtnXHRuyAahs4Gnb5shs+N+Inl+IqmRHlIcAAQIECBAgQIAAAQIECBAg0IYCHdqwL10VSmDLrGxgaVE2wLQ+G3g6tG7gqaaPDtlgVBKUSu6D2pYtu2V2TY6/BAgQIECAAAECBAgQIECAAIE2ExB8ajPqwnSUyWzP3vH09N+P1nXcPxt42s3mtSSvw37ZANRfI5MNWGUy2SN5HgIECBAgQIAAAQIECBAgQIBAGwoIPrUhdkG62v56NvC0ItvU5mzgqQkXiXfY8x9H8LL3QKV3QxVkFBohQIAAAQIECBAgQIAAAQIECDRJYDfbZppUX6G2Fshk73KKrdlPl2zwqQmxw6rsBVBVnf9eJ5M9puchQIAAAQIECBAgQIAAAQKlJJAc0im3gzrlNt4ir3cTohdFHqHu6wqkx+yqsmnb66Y39C09apeUTZa6U0OlpBMgQIAAAQIECBAgQIAAAQIEWkVA8KlVWFux0Q77Zncy9cx2sC0bGU52QTXy1Ox2Sup07NtIYdkECBAgQIAAAQIECBAgQIAAgcIKOHZXWM9Wb62qQzaI1GlYZLYv+ful49UDG+4z2fWU3PPUoW9UdRoeVVXdGi4rhwABAgQIECBAgAABAgQIFEsgk5zw8VSqgJ1P5biynY/NBpT2ye58+ls2ALUs+zfHYdM08JTkZXdHdeiXvSLq3eU4U2MmQIAAAQIECBAgQIAAAQIEylzAzqcyXMCq6oMjup4WmU3Zu5y2vZzd3bT670fqqnplZ5Psdlqb/SS/iLcjovrQqOr2L1HV8YAynKkhEyBAgAABAgQIECBAgAABAuUuIPhUrivY5aTsMbrO2QDUr7Mxpjezn+XZuFP2KF7yJMfrOmbvhkqO23X956iy6+nvLv5JgAABAgQIECBAgAABAgQItLmA4FObkxemw6qq7HnYLsdl738aEbF1dmS2PJMNPmV3QEU2vap3VHUemc07Kqo69ChMh1ohQIAAAQIECBAgQIAAAQIECOQhIPiUB1opVUkvIO9yYnZ304mlNCxjIUCAAAECBAgQIECAAAECBAikAi4c9y8CAQIECBAgQIAAAQIECBAgQIBAqwnY+dRqtBomQIAAAQIECBAgQIAAAQIEmiSQ40fcm1RPobIQsPOpLJbJIAkQIECAAAECBAgQIECAAAEC5Skg+FSe62bUBAgQIECAAAECBAgQIECAAIGyEBB8KotlMkgCBAgQIECAAAECBAgQIECAQHkKCD6V57oZNQECBAgQIECAAAECBAgQIECgLAQEn8pimQySAAECBAgQIECAAAECBAgQIFCeAoJP5bluRk2AAAECBAgQIECAAAECBAgQKAsBwaeyWCaDJECAAAECBAgQIECAAAECBAiUp0B1eQ7bqAkQIECAAAECBAgQIECAAIGKEchUzExMJIeAnU85UCQRIECAAAECBAgQIECAAAECBAgURkDwqTCOWiFAgAABAgQIECBAgAABAgQIEMgh4NhdDhRJBAgQIECAAAECBAgQIECAQBsKOHbXhtht35WdT21vrkcCBAgQIECAAAECBAgQIECAQLsREHxqN0ttogQIECBAgAABAgQIECBAgACBthcQfGp7cz0SIECAAAECBAgQIECAAAECBNqNgDuf2s1SmygBAgQIECBAgAABAgQIEChVgapSHZhxFUDAzqcCIGqCAAECBAgQIECAAAECBAgQIEAgt4DgU24XqQQIECBAgAABAgQIECBAgAABAgUQEHwqAKImCBAgQIAAAQIECBAgQIAAAQIEcgu48ym3i1QCBAgQIECAAAECBAgQIECgrQQybdWRfoohYOdTMdT1SYAAAQIECBAgQIAAAQIECBBoJwKCT+1koU2TAAECBAgQIECAAAECBAgQIFAMAcGnYqjrkwABAgQIECBAgAABAgQIECDQTgQEn9rJQpsmAQIECBAgQIAAAQIECBAgQKAYAoJPxVDXJwECBAgQIECAAAECBAgQIECgnQgIPrWThTZNAgQIECBAgAABAgQIECBAgEAxBKqL0ak+CRAgQIAAAQIECBAgQIAAAQKpQCb7z+RTTk+5jbfItnY+FXkBdE+AAAECBAgQIECAAAECBAgQqGQBwadKXl1zI0CAAAECBAgQIECAAAECBAgUWcCxuyIvgO4JECBAgAABAgQIECBAgED7FqjKHrvLfsrqKbfxFhfXzqfi+uudAAECBAgQIECAAAECBAgQIFDRAoJPFb28JkeAAAECBAgQIECAAAECBAgQKK6A4FNx/fVOgAABAgQIECBAgAABAgQIEKhoAXc+VfTymhwBAgQIECBAgAABAgQIECh9ATcolf4atWSEdj61RE9dAgQIECBAgAABAgQIECBAgACB3QoIPu2WRyYBAgQIECBAgAABAgQIECBAgEBLBASfWqKnLgECBAgQIECAAAECBAgQIECAwG4F3Pm0Wx6ZBAgQIECAAAECBAgQIECAQKsLZFq9Bx0UUcDOpyLi65oAAQIECBAgQIAAAQIECBAgUOkCgk+VvsLmR4AAAQIECBAgQIAAAQIECBAoooDgUxHxdU2AAAECBAgQIECAAAECBAi0X4HZs2fHddddF2eddVb0798/qqqq0k++IqtWrYpLLrkkDjrooOjSpUv699JLL43Vq1c32OT27dvje9/7XrzjHe+Ibt26Rd++feO8886LF154ocE6zc1w51NzxZQnQIAAAQIECBAgQIAAAQIECBRA4Jprrol77723AC1FrFy5MkaNGhWvvPJKDBo0KD74wQ/GvHnzYtKkSfF///d/8cQTT0SfPn3q9LVjx44499xzY9q0adG7d+8YPXp02s7UqVNjxowZ8cgjj8QxxxxTp04+X+x8ykdNHQIECBAgQIAAAQIECBAgQIBACwWSYNGECRPivvvui2XLlqW7lfJtMtnhlASekl1U8+fPjzvvvDOef/75+OIXvxgvvfRSjB8/vl7Tt956axp4GjJkSLz44ouRBJ1+97vfxZQpU2LDhg3x0Y9+NLZt21avXnMTqjLZp7mV2lv5YcOGpVNOIoYeAgQIECBAgAABAgQIECDQ2gLt5b9Dk3kuX78+Pn3rLa1NWtD2b7ng09GvR490Z1EhG+7atWts3rw5mhuqSQJXybG96urqWLx4ceyzzz61w0raO/DAA+Ott96KpUuXRr9+/WrzjjjiiPR4XbLzKdkptfMzduzYNCiWBKTOPvvsnbOa/W7nU7PJVCBAgAABAgQIECBAgAABAgQKKVCVbaycPoWceyHa+tWvfhXJEboTTjihTuApaTu5+2nMmDGR3O30wAMP1Hb36quvpoGn5J6n5Ljdrs8555yTJk2fPn3XrGZ/F3xqNpkKBAgQIECAAAECBAgQIECAAIHSEXj22WfTwYwcOTLnoGrS586dW5tfU+ftb397dOrUqTa95iVXnZq85v514XhzxZQnQIAAAQIECBAgQIAAAQIE2r3AggULouZ45K4YbX1tT3LULnmSo3e5npr0RYsW1WbnU6e2cjNfBJ+aCaY4AQIECBAgQIAAAQIECBAgUGABt1G3CHTdunVp/e7du+dsp0f2fqrkWbt2bW1+PnVqKzfzRfCpmWCKEyBAgAABAgQIECBAgAABAgQGDx5c8AvHK1XVnU+VurLmRYAAAQIECBAgQIAAAQIECLQLgZ49e6bz3LBhQ875rs/+omDy9OrVqzY/nzq1lZv5IvjUTDDFCRAgQIAAAQIECBAgQIAAAQKlJDBgwIB0OEuWLMk5rJr0gw46qDY/nzq1lZv54thdM8EUJ0CAAAECBAgQIECAAAECBAos4M6nFoGOGDEirT9nzpyc7dSkDx8+vDa/ps7zzz8fW7durfeLd7nq1FZu5oudT80EU5wAAQIECBAgQIAAAQIECBAgUEoCH/jAB6JDhw7x2GOPxfLly+sMbfPmzTF9+vTo2LFjnH766bV5AwcOjMMPPzw2btwYM2bMqE2veZk6dWr6OmbMmJqkvP8KPuVNpyIBAgQIECBAgAABAgQIECBAoO0EJk+eHEOHDo0rrriiTqf77bdffOQjH4ktW7bERRddFNu2bavNv+yyy2LFihXxsY99LPr161ebnryMHz8+/Z6U2Tlodffdd8d9990XhxxySIwdO7ZOnXy+OHaXj5o6BAgQIECAAAECBAgQIECAAIEWCiQ7jq655praVpLgUfIce+yxtWkTJkyI0aNHp99XrlwZ8+fPj2XLltXm17zccMMN8eSTT8Zdd92VBqje+c53pr/GlxyrGzJkSEycOLGmaO3fCy64IB544IGYNm1aWud973tfJH08+uij0a1bt7jjjjuiurrloSM7n2rJvRAgQIAAAQIECBAgQIAAAQIE2k4g2ZH01FNP1X4ymb9ffrVzWlKmKc/ee+8ds2bNii9+8YvpDqgkoLRmzZr40pe+lKb36dOnXjPJUb0pU6bE9ddfH/vvv3/cf//98dxzz8XZZ58dTz/9dLz73e+uVyefhKrsxFzr1YjcsGHD0hLz5s1rpKRsAgQIECBAgAABAgQIECDQcoH28t+hyTyXr18fn/l/t7QcrQ1b+J9PfTr69eiR7ixqw27Ltis7n8p26QycAAECBAgQIECAAAECBAgQIFD6Ai0/uFf6czRCAgQIECBAgAABAgQIECBAoJQFnMkq5dVp8djsfGoxoQYIECBAgAABAgQIECBAgAABAgQaEhB8akhGOgECBAgQIECAAAECBAgQIECAQIsFBJ9aTKgBAgQIECBAgAABAgQIECBAgACBhgQEnxqSkU6AAAECBAgQIECAAAECBAgQINBiAcGnFhNqgAABAgQIECBAgAABAgQIECBAoCEBwaeGZKQTIECAAAECBAgQIECAAAECBAi0WKC6xS1ogAABAgQIECBAgAABAgQIECCQr0AmWzH5lNNTbuMtsq2dT0VeAN0TIECAAAECBAgQIECAAAECBCpZQPCpklfX3AgQIECAAAECBAgQIECAAAECRRYQfCryAuieAAECBAgQIECAAAECBAgQIFDJAu58quTVNTcCBAgQIECAAAECBAgQIFAGAlXuUCqDVcp/iHY+5W+nJgECBAgQIECAAAECBAgQIECAQCMCgk+NAMkmQIAAAQIECBAgQIAAAQIECBDIX0DwKX87NQkQIECAAAECBAgQIECAAAECBBoRcOdTI0CyCRAgQIAAAQIECBAgQIAAgdYWqGrtDrRfRAE7n4qIr2sCBAgQIECAAAECBAgQIECAQKULCD5V+gqbHwECBAgQIECAAAECBAgQIECgiAKO3RURX9cECBAgQIAAAQIECBAgQIBAViBDoZIF7Hyq5NU1NwIECBAgQIAAAQIECBAgQIBAkQUEn4q8ALonQIAAAQIECBAgQIAAAQIECFSygOBTJa+uuREgQIAAAQIECBAgQIAAAQIEiiwg+FTkBdA9AQIECBAgQIAAAQIECBAgQKCSBSoi+LRx48a46qqr4tBDD42uXbvG/vvvHxdccEG8/vrrlbx25kaAAAECBAgQIECAAAECBAgQKHmBsg8+bdq0KU4++eS45pprYt26dTF27Ng48MAD47bbboujjjoqFi5cWPKLYIAECBAgQIAAAQIECBAgQIAAgUoVKPvg07XXXhtPPvlkjBo1Kl566aW4884746mnnorrr78+VqxYke6AqtTFMy8CBAgQIECAAAECBAgQIECAQKkLlHXwacuWLTF58uTU+KabboqePXvWeo8fPz6GDx8ejz76aMyePbs23QsBAgQIECBAgAABAgQIECBQYgKZ7HjK6VNifKU+nLIOPs2cOTPWrFkTgwcPTo/Y7Yp9zjnnpEnTp0/fNct3AgQIECBAgAABAgQIECBAgACBNhAo6+DTs88+mxKNHDkyJ1VN+ty5c3PmSyRAgAABAgQIECBAgAABAgQIEGhdgerWbb51W1+8eHHaQf/+/XN2VJO+aNGinPm7Jg4bNmzXpPT7ggUL0t1VOTMlEiBAgAABAgQIECBAgAABAi0SqEqO3HkqVqCsdz4lv26XPN27d8+5QD169EjT165dmzNfIgECBAgQIECAAAECBAgQIECAQOsKlPXOp0LTzJs3L2eTDe2IyllYIgECBAgQIECAAAECBAgQIECAQK1AWe98qvl1uw0bNtROaOeX9evXp1979eq1c7J3AgQIECBAgAABAgQIECBAgACBNhIo6+DTgAEDUqYlS5bk5KpJP+igg3LmSyRAgAABAgQIECBAgAABAgQIEGhdgbIOPo0YMSLVmTNnTk6lmvThw4fnzJdIgAABAgQIECBAgAABAgQIECDQugJlHXw67rjjYo899ojk1+ieeeaZelJTp05N08aMGVMvTwIBAgQIECBAgAABAgQIECBAgEDrC5R18Klz587xhS98IVW6+OKLo+aOpyRh4sSJMXfu3DjxxBPj6KOPbn1JPRAgQIAAAQIECBAgQIAAAQL5CWSy1crpk98s222tsv+1uyuvvDIeeuihePzxx2PIkCFxwgknxKJFi+Kpp56Kvn37xq233tpuF9fECRAgQIAAAQIECBAgQIAAAQLFFijrnU8JXteuXeORRx6JCRMmRPfu3eOee+5Jg0/jxo2L5M6nQYMGFdtY/wQIECBAgAABAgQIECBAgACBditQ9jufkpXr1q1bfPOb30w/7XYlTZwAAQIECBAgQIAAAQIECBAgUIICFRF8KkFXQyJAgAABAgQIECBAgAABAgSaKFDVxHKKladA2R+7K092oyZAgAABAgQIECBAgAABAgQItA8Bwaf2sc5mSYAAAQIECBAgQIAAAQIECBAoioDgU1HYdUqAAAECBAgQIECAAAECBAgQaB8Cgk/tY53NkgABAgQIECBAgAABAgQIECBQFAHBp6Kw65QAAQIECBAgQIAAAQIECBAg0D4EBJ/axzqbJQECBAgQIECAAAECBAgQIECgKALVRelVpwQIECBAgAABAgQIECBAgACBRCDzj085aSRj9jRZwM6nJlMpSIAAAQIECBAgQIAAAQIECBAg0FwBwafmiilPgAABAgQIECBAgAABAgQIECDQZAHBpyZTKUiAAAECBAgQIECAAAECBAgQINBcAXc+NVdMeQIECBAgQIAAAQIECBAgQKCwAu5QKqxnibVm51OJLYjhECBAgAABAgQIECBAgAABAgQqSUDwqZJW01wIECBAgAABAgQIECBAgAABAiUmIPhUYgtiOAQIECBAgAABAgQIECBAgACBShJw51Mlraa5ECBAgAABAgQIECBAgEA9gb+uWxdPvf5aLF6zJrZs3x5dqqtj8J594pgDDog+3brXKy+BAIHCCgg+FdZTawQIECBAgAABAgQIECBQIgLrt2yJKX9+Pl5YuSJWrF8fqzdvjO07MlHdoUM888bSePQvC+Oo/faPDw49Ijp37FgiozYMApUnIPhUeWtqRgQIECBAgAABAgQIEGj3Akng6X/m/DHmLV8eS/62Jvbo2jX26dErOmUDT8nupxUb1sdrf/tbrNm8OfvZFONGjIxOAlDt/t8bAK0jIPjUOq5aJUCAAAECBAgQIECAAIEiCkx94fk08LRs3do4om+/6NapU53R7NW9e6zNBp5efuvNiKrIBqZeijMOO7xOGV/aUCDThn3pqs0FXDje5uQ6JECAAAECBAgQIECAAIHWFEjuePrzihXZnU1r4tC99q4XeKrpu1eXLundT4tWr46nl74eG7ZurcnylwCBAgoIPhUQU1MECBAgQIAAAQIECBAgUHyBWUuXpMfqkqN23XfZ8bTr6N6WDUAld0Alx/DmLFu6a7bvBAgUQEDwqQCImiBAgAABAgQIECBAgACB0hFIftVu9aZNsVe3bo0OqqqqKluue6zJll+8ZnWj5RUgQKD5Au58ar6ZGgQIECBAgAABAgQIECBQwgJbtm+LHemv2jXtF+yqO3aIbVsz6UXkJTytih1a9sqt5NqtsnrKbbzFxrXzqdgroH8CBAgQIECAAAECBAgQKKhA1+rq9ChdEoRqyrNl2/a0fFLPQ4BA4QUEnwpvqkUCBAgQIECAAAECBAgQKKLAIXvuFX2yR+5WbtjQ6CgymUys3LghPaJ3SJ+9Gi2vAAECzRcQfGq+mRoECBAgQIAAAQIECBAgUMIC7zrggNire/f01+v+tnnTbkeaBKiS/zDu16NnDN9n392WldmKApls2+X0aUWKSmxa8KkSV9WcCBAgQIBAOxTYvmNHrNq4MVasXx/rtmxphwKmTIAAAQI1Ar27dot37X9ADNpzz3j5rbdi1aaNkexw2vlJvif/m7H4b2uy5frE8QMOis4dm3ZH1M7teCdAoHEBB1obN1KCAAECBAgQKGGBJOD01OtLYvay1+NvmzdnL5jdkd7bcXD2PzjefcCB8fZ++6TfS3gKhkaAAAECrSAw5tCh8Vb2fyOSq6wXrV4VSzp0SH/VrlP275bt27NH8tZHhw5VMXSvveM9Bw6Ikw4a2Aqj0CQBAomA4JN/DwgQIECAAIGyFfjTsqUx9YV5sXz9uuxnfWzati2Sn8zekdkRr65eHX9esTyG9Nk7PjHiyHhbl65lO08DJ0CAAIHmC3TK7mIad+TI2O+Vl2PW0iWxIhtsWr1pU2zcuiM6ZgNQA7O7nfr16JHueEoCT8n/fngIEGgdAcGn1nHVKgECBAgQINDKAs/+9Y34+fNz46U3V2b/P9cd4oBeb4veXbum//GQ/H+0k//IeOnNN2Pt5i2xdcf2+OzRx0T3Tp1aeVSaJ0CAAIFSEqjO/u/D6EMPi5MHDoo/vbEsXluzOjZn/zci+VW7wX36xPB++0YSpPKUgEDdU5ElMCBDKKSA4FMhNbVFgAABAgQItInAxq1bY1p2x1MSXOrZuUsM2GOPOv8f6+TOjiQYtXe37vHCyhXRaWWH+M2CV+KDQw9vk/HphAABAgRKS6Bb9v/5kByti+TjIUCgzQVcON7m5DokQIAAAQIEWiow542l6TG7Hdmfxdk18LRz212y/5/t5LLZ1/+2Np7J1tm0bevO2d4JECBAgAABAgTaQEDwqQ2QdUGAAAECBAgUVuDppa+nwad9snd1NHZHR6/szqjsfbLZY3gbYu5f/1rYgWiNAAECBAgQIECgUQHBp0aJFCBAgAABAgRKSSD5aew3s4Gk9Vu3xB5NuEQ8CU7tkb0Lav2WLfHmxg2lNBVjIUCAAAECBAi0CwHBp3axzCZJgAABAgQqS2BHdjrJvaRN/WGiquzPbGey/7djh9tMK+vfBLMhQIAAAQIEykFA8KkcVskYCRAgQIAAgVqBZCdTr86do2vH6uxupqbd4ZTskkp+2ehtXbrUtuOFAAECBAgQIECgbQQEn9rGWS8ECBAgQIBAAQVG7LNf9O3RPZZvWN9oq8kv463Pfvpkf/nu7f32abS8AgQIECBAgEARBJLNyeX0KQJROXcp+FTOq2fsBAgQIECgnQocc8ABsXc2mLQhu6Mpuf+poWdH9n6ov6xZHf2yF5Mf0bdf7NmtW0NFpRMgQIAAAQIECLSSQHUrtatZAgQIECBAgECrCSS7mN578MDYsG1bvPTmyti4bWvs06NndOrYMe0zuZR8bfaC8SV/WxPVHTrE4D37xKmDDmm18WiYAAECBAgQIECgYQHBp4Zt5BAgQIAAAQIlLPCBwUNiczb41LFDVSz929qY+9c3okf2LqgO2TuhNmXTkwBUv2xA6uDeveNjw4+MfXr2LOHZGBoBAgQIECBAoHIFBJ8qd23NjAABAgQIVLRAcvH42MMOj4HZXU1PvLY4Fq56K7vbaXM26BTZHVAd0juejtp3vzh+wMGxd/fuFW1hcgQIECBAoNwFqsp9Asa/WwHBp93yyCRAgAABAgRKWSAJQI3YZ9/0s2zt2nhj3drYumNH9OjUKQb36ZP9hbtOpTx8YyNAgAABAgQItAsBwad2scwmSYAAAQIEKl9gv169Ivl4CBAgQIAAAQIESktA8Km01sNoCBAgQIAAAQIECBAgQIBA+xLIHpmP5FNOT7mNt8i2HYrcv+4JECBAgAABAgQIECBAgAABAgQqWEDwqYIX19QIECBAgAABAgQIECBAgAABAsUWEHwq9gronwABAgQIECBAgAABAgQIECBQwQLufKrgxTU1AgQIECBAgAABAgQIECBQFgLuUCqLZcp3kHY+5SunHgECBAgQIECAAAECBAgQIECAQKMCgk+NEilAgAABAgQIECBAgAABAgQIECCQr4Bjd/nKqUeAAAECBAgQIECAAAECBAgURKCqIK1opFQF7Hwq1ZUxLgIECBAgQIAAAQIECBAgQIBABQgIPlXAIpoCAQIECBAgQIAAAQIECBAgQKBUBQSfSnVljIsAAQIECBAgQIAAAQIECBAgUAEC7nyqgEU0BQIECBAgQIAAAQIECBAgUNYCmbIevcE3ImDnUyNAsgkQIECAAAECBAgQIECAAAECBPIXEHzK305NAgQIECBAgAABAgQIECBAgACBRgQEnxoBkk2AAAECBAgQIECAAAECBAgQIJC/gOBT/nZqEiBAgAABAgQIECBAgAABAgRaJLBx48a46qqr4tBDD42uXbvG/vvvHxdccEG8/vrrTW739ttvj6qqqkY/P/nJT+q0OW7cuN3Wufnmm+uUz/eLC8fzlVOPAAECBAgQIECAAAECBAgQINACgU2bNsXJJ58cTz75ZOy3334xduzY+Mtf/hK33XZb3H///Wn6oEGDGu3hkEMOiU9+8pM5y61ZsybuueeeNO/444/PWea0006Lfffdt17eYYcdVi8tnwTBp3zU1CFAgAABAgQIECBAgAABAgQItFDg2muvTQNMo0aNit/85jfRs2fPtMWJEyfGl7/85XQH1O9+97tGe0mCSg0Fln74wx+mwafjjjsuGgpkfe1rX4uTTjqp0X7yLeDYXb5y6hEgQIAAAQIECBAgQIAAAQKFEchkmymnTwFmvWXLlpg8eXLa0k033VQbeEoSxo8fH8OHD49HH300Zs+e3aLe7rjjjrT+xz/+8Ra105LKgk8t0VOXAAECBAgQIECAAAECBAgQIJCHwMyZMyM5Ejd48OA46qij6rVwzjnnpGnTp0+vl9fUhFdffTUef/zx6Ny5c5x33nlNrVbwco7dFZxUgwQIECBAgAABAgQIECBAgACB3Qs8++yzaYGRI0fmLFiTPnfu3Jz5TUms2fU0evTo2HPPPRuscvfdd8ddd90V27dvj4EDB8aYMWNi6NChDZZvbobgU3PFlCdAgAABAgQIECBAgAABAgTavcCCBQti2LBhOR3mzZuXM33nxMWLF6df+/fvv3Ny7XtN+qJFi2rTmvtSE3xq7MjdjTfeWKfpyy+/PD7/+c/HpEmTorq65aEjx+7q8PpCgAABAgQIECBAgAABAgQItLlAOd33lIy1AM+6devSVrp3756ztR49eqTpa9euzZnfWOKsWbPipZdeij59+kSy8ynXkxz3u/nmm9NyGzZsiIULF0Zy/1Tv3r3jBz/4QXz1q1/NVa3ZaS0PXzW7SxUIECBAgAABAgQIECBAgAABAuUtkNzV1JQdTsWaZc2up+Sup+TOp1zPJZdcUic5OXJ30UUXxYknnhjJsb/kQvTk8vMDDzywTrnmfrHzqbliyhMgQIAAAQIECBAgQIAAAQIEWijQs2fPtIVkx1GuZ/369Wlyr169cmXvNm3btm1x5513pmUaO3KXq6HkOOEZZ5wRSTu//e1vcxVpVprgU7O4FCZAgAABAgQIECBAgAABAgQItFxgwIABaSNLlizJ2VhN+kEHHZQzf3eJv/nNb2L58uUxaNCgeM973rO7og3mDRkyJM1btmxZg2WamuHYXVOllCNAgAABAgQIECBAgAABAgRaRaCqVVot7UZHjBiRDnDOnDk5B1qTPnz48Jz5u0usOXL3sY99bHfFdpu3atWqNL/m7qndFm4k086nRoBkEyBAgAABAgQIECBAgAABAgQKLXDcccfFHnvsEcmv5j3zzDP1mp86dWqaNmbMmHp5u0tILjK/99570yL5Bp82b94cM2bMSNtI7n5q6SP41FJB9QkQIECAAAECBAgQIECAAAECzRRILgH/whe+kNa6+OKLo+aOpyRh4sSJMXfu3PTi76OPPrq25eQC8KFDh8YVV1xRm7bry9133x3JPVLHHnts1Byd27VM8v3FF1+Mn/70p5EEmnZ+VqxYER/+8Ifjtddei2R3VhIka+nj2F1LBdUnQIAAAQIECBAgQIAAAQIECOQhcOWVV8ZDDz0Ujz/+eBooOuGEE2LRokXx1FNPRd++fePWW2+t0+rKlStj/vz5sbt7mGqO3DV20fgbb7wRn/jEJyL5xbt3vvOdaX9Lly6N2bNnx9q1a6N///7xy1/+MqqqWn4o0s6nOsvoCwECBAgQIECAAAECBAgQIECgbQS6du0ajzzySEyYMCG6d+8e99xzTxp8GjduXCR3PiUXhjfnSYJSDz/8cHTq1Ck+9KEP7bbqoYceGpdeemkcdthh8dxzz8WUKVPi6aefToNgV199dbrzKilTiKcqk30K0VAlt5H8xGDyzJs3r5KnaW4ECBAgQIAAAQIECBAgUCIC7eW/Q5N5rvjb+vjC9f+vROSbNozJX/5U9H1bD3GCpnGFnU9NhFKMAAECBAgQIECAAAECBAgQIECg+QLufGq+mRoECBAgQIAAAQIECBAgQIBAIQWcySqkZsm1ZedTyS2JAREgQIAAAQIECBAgQIAAAQIEKkdA8Kly1tJMCBAgQIAAAQIECBAgQIAAAQIlJyD4VHJLYkAECBAgQIAAAQIECBAgQIAAgcoREHyqnLU0EwIECBAgQIAAAQIECBAgQIBAyQkIPpXckhgQAQIECBAgQIAAAQIECBAgQKByBASfKmctzYQAAQIECBAgQIAAAQIECBAgUHIC1SU3IgMiQIAAAQIECBAgQIAAAQIE2o9AJjvV5FNOT7mNt8i2dj4VeQF0T4AAAQIECBAgQIAAAQIECBCoZAHBp0peXXMjQIAAAQIECBAgQIAAAQIECBRZQPCpyAugewIECBAgQIAAAQIECBAgQIBAJQu486mSV9fcCBAgQIAAAQIECBAgQIBAGQhUlcEYDTF/ATuf8rdTkwABAgQIECBAgAABAgQIECBAoBEBwadGgGQTIECAAAECBAgQIECAAAECBAjkL+DYXf52ahIgQIAAAQIECBAgQIAAAQKFEMgUohFtlKqAnU+lujLGRYAAAQIECBAgQIAAAQIECBCoAAHBpwpYRFMgQIAAAQIECBAgQIAAAQIECJSqgOBTqa6McREgQIAAAQIECBAgQIAAAQIEKkDAnU8VsIimQIAAAQIECBAgQIAAAQIEylmgyp1P5bx8jY7dzqdGiRQgQIAAAQIECBAgQIAAAQIECBDIV0DwKV859QgQIECAAAECBAgQIECAAAECBBoVEHxqlEgBAgQIECBAgAABAgQIECBAgACBfAUEn/KVU48AAQIECBAgQIAAAQIECBAgQKBRgZIIPr344ovx3//93/FP//RPsffee0enTp1i3333jbPOOisee+yx3U5iyZIlcf7558f+++8fXbt2jUMPPTSuvvrq2LRp027rySRAgAABAgQIECBAgAABAgQIEGh9gZIIPp1yyinxta99LZ5++uk46qij0qBT3759Y9q0aXHiiSfGDTfckFPilVdeScvffvvtsddee8XYsWNj+/bt8c1vfjOSNjdv3pyznkQCBAgQIECAAAECBAgQIECAAIG2ESiJ4NPQoUPjJz/5SaxYsSIefPDBuPPOO+O5556Lm2++OTKZTHzlK1+JP//5z/VExo0bFytXrowvfelLafmk3vz58+PMM8+MmTNnxn/913/VqyOBAAECBAgQIECAAAECBAgQKDGBTHY85fQpMb5SH05JBJ8eeuih+PjHP54em9sZ7LOf/Wyceuqp6W6mKVOm7JwVs2bNSgNM/fr1i29/+9u1edXV1fHDH/4wPbr3/e9/P7Zt21ab54UAAQIECBAgQIAAAQIECBAgQKBtBUoi+LS7KY8YMSLNXrp0aZ1iM2bMSL+PGTMmunTpUidvn332iRNOOCFWrVoVf/jDH+rk+UKAAAECBAgQIECAAAECBAgQINB2AiUffFq4cGGqkVxAvvPz7LPPpl9Hjhy5c3Lte0363Llza9O8ECBAgAABAgQIECBAgAABAgQItK1Addt217zeFixYEPfff39a6YwzzqhTefHixen3/v3710mv+VKTvmjRopqkRv8OGzYsZ5lkHIMHD86ZJ5EAAQIECBAgQIAAAQIECBAgQKBhgZLd+ZTc1ZRcKJ78Yt2HPvShOProo+vMYt26den37t2710mv+dKjR4/0de3atTVJ/hIgQIAAAQIECBAgQIAAAQIECLSxQEF2PiW/LvfCCy80a+jJr9sdc8wxDdZJfsEuua9p0KBB8YMf/KDBcoXMmDdvXs7mGtoRlbOwRAIECBAgQIAAAQIECBAgQIAAgVqBggSfXn311Zg/f35to0152bBhQ4PFvvWtb6W/WJdcHP7rX/86+vTpU69sz54907SG2lm/fn2a36tXr3p1JRAgQIAAAQIECBAgQIAAAQIlJJApobEYSsEFChJ8euaZZwo2sJtvvjmuvPLK2GOPPeJXv/pVHHLIITnbHjBgQPzpT3+KJUuW5MyvST/ooINy5kskQIAAAQIECBAgQIAAAQIECBBofYGSuvPpF7/4RVx88cWR3OM0Y8aMOPLIIxsUGDFiRJo3Z86cnGVq0ocPH54zXyIBAgQIECBAgAABAgQIECBAgEDrC5RM8OmBBx6IT3ziE1FdXR3Tpk2L4447brezHz16dJo/ffr09FLynQv/9a9/jcceeyz23HPPRtvZuZ53AgQIECBAgAABAgQIECBAgACBwgqURPBp5syZcc4550Qmk4k777wzTj311EZnmVxWngSoli9fHpdffnlt+eRX8i666KLYunVrJJeWd+rUqTbPCwECBAgQIECAAAECBAgQIFBaAlXZ4VRl73wqq09pEZb8aApy51NLZ/kv//IvsXHjxhg4cGDcc8896WfXNo8//vj41Kc+VSf5tttui1GjRsWkSZPi4YcfjiOOOCL++Mc/xsKFC+M973lPXHHFFXXK+0KAAAECBAgQIECAAAECBAgQINC2AiURfFq9enU66+RX85JPQ8+uwachQ4akl45fddVV6eXkyXG95CLyCRMmxL//+79Hly5dGmpKOgECBAgQIECAAAECBAgQIECAQBsIlETwKTlul+9z4IEHRrIDykOAAAECBAgQIECAAAECBAgQIFB6AiVx51PpsRgRAQIECBAgQIAAAQIECBAgQIBAIQQEnwqhqA0CBAgQIECAAAECBAgQIECAAIGcAoJPOVkkEiBAgAABAgQIECBAgAABAgQIFEKgJO58KsREtEGAAAECBAgQIECAAAECBAiUoUByDXQL7oIuyozzv7q6KMMtdqd2PhV7BfRPgAABAgQIECBAgAABAgQIEKhgAcGnCl5cUyNAgAABAgQIECBAgAABAgQIFFtA8KnYK6B/AgQIECBAgAABAgQIECBAgEAFCwg+VfDimhoBAgQIECBAgAABAgQIECBAoNgCgk/FXgH9EyBAgAABAgQIECBAgAABAgQqWEDwqYIX19QIECBAgAABAgQIECBAgAABAsUWqC72APRPgAABAgQIECBAgAABAgQItG+Bqkz7nn+lz97Op0pfYfMjQIAAAQIECBAgQIAAAQIECBRRQPCpiPi6JkCAAAECBAgQIECAAAECBAhUuoDgU6WvsPkRIECAAAECBAgQIECAAAECBIoo4M6nIuLrmgABAgQIECBAgAABAgQIEMgKuPOpov81sPOpopfX5AgQIECAAAECBAgQIECAAAECxRUQfCquv94JECBAgAABAgQIECBAgAABAhUt4NhdRS+vyREgQIAAAQIECBAgQIAAgdIXqCr9IRphCwTsfGoBnqoECBAgQIAAAQIECBAgQIAAAQK7FxB82r2PXAIECBAgQIAAAQIECBAgQIAAgRYICD61AE9VAgQIECBAgAABAgQIECBAgACB3Qu482n3PnIJECBAgAABAgQIECBAgACB1hbItHYH2i+mgJ1PxdTXNwECBAgQIECAAAECBAgQIECgwgUEnyp8gU2PAAECBAgQIECAAAECBAgQIFBMAcGnYurrmwABAgQIECBAgAABAgQIECBQ4QKCTxW+wKZHgAABAgQIECBAgAABAgQIECimgOBTMfX1TYAAAQIECBAgQIAAAQIECBCocAHBpwpfYNMjQIAAAQIECBAgQIAAAQIECBRToLqYneubAAECBAgQIECAAAECBAgQIBAZBpUsYOdTJa+uuREgQIAAAQIECBAgQIAAAQIEiiwg+FTkBdA9AQIECBAgQIAAAQIECBAgQKCSBQSfKnl1zY0AAQIECBAgQIAAAQIECBAgUGQBdz4VeQF0T4AAAQIECBAgQIAAAQIE2rtAlTufKvpfATufKnp5TY4AAQIECBAgQIAAAQIECBAgUFwBwafi+uudAAECBAgQIECAAAECBAgQIFDRAoJPFb28JkeAAAECBAgQIECAAAECBAgQKK6A4FNx/fVOgAABAgQIECBAgAABAgQIEKhoAcGnil5ekyNAgAABAgQIECBAgAABAgQIFFdA8Km4/nonQIAAAQIECBAgQIAAAQIECFS0QHVFz87kCBAgQIAAAQIECBAgQIAAgdIWyGSHl3zK6Sm38RbZ1s6nIi+A7gkQIECAAAECBAgQIECAAAEClSwg+FTJq2tuBAgQIECAAAECBAgQIECAAIEiCwg+FXkBdE+AAAECBAgQIECAAAECBAgQqGQBwadKXl1zI0CAAAECBAgQIECAAAECBAgUWUDwqcgLoHsCBAgQIECAAAECBAgQIECAQCULCD5V8uqaGwECBAgQIECAAAECBAgQIECgyALVRe5f9wQIECBAgAABAgQIECBAgEA7F6ja0c4BKnz6dj5V+AKbHgECBAgQIECAAAECBAgQIECgmAKCT8XU1zcBAgQIECBAgAABAgQIECBAoMIFBJ8qfIFNjwABAgQIECBAgAABAgQIECBQTAHBp2Lq65sAAQIECBAgQIAAAQIECBAgUOECgk8VvsCmR4AAAQIECBAgQIAAAQIECBAopoDgUzH19U2AAAECBAgQIECAAAECBAgQqHABwacKX2DTI0CAAAECBAgQIECAAAECBAgUU6C6mJ3rmwABAgQIECBAgAABAgQIECBQlWFQyQJ2PlXy6pobAQIECBAgQIAAAQIECBAgQKDIAoJPRV4A3RMgQIAAAQIECBAgQIAAAQIEKllA8KmSV9fcCBAgQIAAAQIECBAgQIBAyQskZ+7K8VMY2I0bN8ZVV10Vhx56aHTt2jX233//uOCCC+L1119vVgcHH3xwVFVVNfh58cUXc7a3ffv2+N73vhfveMc7olu3btG3b98477zz4oUXXshZPp9Edz7lo6YOAQIECBAgQIAAAQIECBAgQKCFAps2bYqTTz45nnzyydhvv/1i7Nix8Ze//CVuu+22uP/++9P0QYMGNauXT37ykznL77HHHvXSd+zYEeeee25MmzYtevfuHaNHj46VK1fG1KlTY8aMGfHII4/EMcccU69ecxMEn5orpjwBAgQIECBAgAABAgQIECBAoAAC1157bRpgGjVqVPzmN7+Jnj17pq1OnDgxvvzlL6c7oH73u981q6fbb7+9yeVvvfXWNPA0ZMiQeOyxx2KfffZJ6951111xzjnnxEc/+tF0B1R1dcvCR47dNXlJFCRAgAABAgQIECBAgAABAgQIFEZgy5YtMXny5LSxm266qTbwlCSMHz8+hg8fHo8++mjMnj27MB3maCUJciXPt7/97drAU/L97LPPjjPOOCNeeeWVuPfee5OkFj2CTy3iU5kAAQIECBAgQIAAAQIECBBosUC5XfnU4glHzJw5M9asWRODBw+Oo446ql6Lyc6j5Jk+fXq9vEIkvPrqq+mupuSep+S43a5PIftv2b6pXUfmOwECBAgQIECAAAECBAgQIECAQKMCzz77bFpm5MiROcvWpM+dOzdnfkOJ3/nOd2LBggXRpUuXGDZsWJx55pnpJeK7lq/p/+1vf3t06tRp1+zIt/96DWUTBJ9yqUgjQIAAAQIECBAgQIAAAQIECOxGIAnwJMGdXM+8efNyJddJW7x4cfq9f//+ddJrvtSkL1q0qCapSX8vu+yyOuX+7d/+LW688cb0/qidM1qr/537qHl37K5Gwl8CBAgQIECAAAECBAgQIECgOALt8NjdunXrUuvu3bvnNO/Ro0eavnbt2pz5uyYmdzTdfffdkQSrNmzYEM8//3x6d9TmzZvjU5/6VL27mwrd/67j2fm7nU87a3gnQIAAAQIECBAgQIAAAQIECDRBILmrqSk7nJrQVEGKfP/736/TTrIr6/rrr4+hQ4fGZz7zmbj88stj7Nixdcq01Rc7n9pKWj8ECBAgQIAAAQIECBAgQIAAgX8I9OzZM31LdinletavX58m9+rVK1d2k9MuvPDC6NevX8yfPz/+8pe/1NZrq/6TDgWfatm9ECBAgAABAgQIECBAgAABAgTaRmDAgAFpR0uWLMnZYU36QQcdlDO/qYkdOnRIf1EvKb9s2bLaam3Vf9KhY3e17F4IECBAgAABAgQIECBAgACBthaoynaYfMrpKcR4R4wYkU55zpw5Oadekz58+PCc+c1JXLVqVVq85h6p5EtN/8ndUFu3bq33i3eF7N/Op+aslrIECBAgQIAAAQIECBAgQIAAgQIIHHfccbHHHntE8qt5zzzzTL0Wp06dmqaNGTOmXl5zEpJ7qZIjd8nF5sn9TzXPwIED4/DDD4+NGzfGjBkzapJr/xaq/6RBwadaVi8ECBAgQIAAAQIECBAgQIAAgbYR6Ny5c3zhC19IO7v44ouj5o6nJGHixIkxd+7cOPHEE+Poo4+uHdDkyZPTANIVV1xRm5a8PPDAA/Hwww/XSUu+JG2ce+65kclk0l+8S/rc+Rk/fnz69bLLLovly5fXZiW/mnfffffFIYccUpBLyh27q6X1QoAAAQIECBAgQIAAAQIECBBoO4Err7wyHnrooXj88cdjyJAhccIJJ8SiRYviqaeeir59+8att95aZzArV65MdzHtfHdTUmDWrFnxjW98I5L7oZLjdMkup4ULF0ZydG7btm1x0kknxXXXXVenreTLBRdckAaupk2blga13ve+90XSx6OPPhrdunWLO+64I6qrWx46svOpHr0EAgQIECBAgAABAgQIECBAoM0EMtmesjtzyutTGJ2uXbvGI488EhMmTEgDRvfcc08afBo3blwaOBo0aFCTOjrttNPSQNLb3va2mDlzZiRH5l555ZU4/vjj45ZbbkkDXEkwadcnuYx8ypQpcf3118f+++8f999/fzz33HNx9tlnx9NPPx3vfve7d62S1/eq7NarZJk9uxEYNmxYmpuck/QQIECAAAECBAgQIECAAIHWFmgv/x2azPPNt9bFlyf8T2uTFrT966/5TOzVp2eIEzSN1c6npjkpRYAAAQIECBAgQIAAAQIECBAgkIeA4FMeaKoQIECAAAECBAgQIECAAAECBAg0TUDwqWlOShEgQIAAAQIECBAgQIAAAQIECOQhIPiUB5oqBAgQIECAAAECBAgQIECAAAECTRMQfGqak1IE/r/27gRKjqpeHPBvQkgCJLKDYEjAkIggQXYBIwgoCCfs8B4HlyjoeYIsf1QUFUGRxxMlCgp61CdBEB6CBgngBgiyCChbILKDwbAmLDGQjST9r1u+7tcz05OZnume7un5ijN01a1b91Z9dzpd8+t7bxEgQIAAAQIECBAgQIAAAQIEeiEwtBfHOIQAAQIECBAgQIAAAQIECBAgUDuBQu2KUlLzCej51Hxt4owIECBAgAABAgQIECBAgAABAi0jIPjUMk3pQggQIECAAAECBAgQIECAAAECzSdg2F3ztYkzIkCAAAECBAgQIECAAAECg0qgzbC7lm5vPZ9aunldHAECBAgQIECAAAECBAgQIECgsQKCT431VzsBAgQIECBAgAABAgQIECBAoKUFBJ9aunldHAECBAgQIECAAAECBAgQIECgsQLmfGqsv9oJECBAgAABAgQIECBAgAABcz619O+Ank8t3bwujgABAgQIECBAgAABAgQIECDQWAHBp8b6q50AAQIECBAgQIAAAQIECBAg0NICgk8t3bwujgABAgQIECBAgAABAgQIECDQWAHBp8b6q50AAQIECBAgQIAAAQIECBAg0NICgk8t3bwujgABAgQIECBAgAABAgQIECDQWAHBp8b6q50AAQIECBAgQIAAAQIECBAg0NICQ1v66lwcAQIECBAgQIAAAQIECBAg0PQCbYWmP0Un2AcBPZ/6gOdQAgQIECBAgAABAgQIECBAgACBlQsIPq3cx14CBAgQIECAAAECBAgQIECAAIE+CAg+9QHPoQQIECBAgAABAgQIECBAgAABAisXMOfTyn3sJUCAAAECBAgQIECAAAECBOotUDDpU72JG1l+0/Z8OvPMM6OtrS3/ufTSS7s0mjNnTnz84x+PjTfeOEaMGBETJkyI008/PRYvXtzlMXYQIECAAAECBAgQIECAAAECBAj0j0BTBp8effTROOuss/LA08oYnnjiidh2221j2rRpse6668aBBx4Yy5cvj69//eux9957x5IlS1Z2uH0ECBAgQIAAAQIECBAgQIAAAQJ1Fmi64FMh62r3qU99KtZaa6044IADVnr5U6ZMiXnz5sUJJ5xw3uDsAAA+x0lEQVQQDz74YFxxxRWRAlcHH3xw3H777XH22Wev9Hg7CRAgQIAAAQIECBAgQIAAAQIE6ivQdMGnn/zkJ/GnP/0pzj333DwA1dXl33333XmAaYMNNohzzjmnlG3o0KHxgx/8IFZdddU4//zzY9myZaV9VggQIECAAAECBAgQIECAAAECBPpXoKmCTy+88EKccsopsddee8VRRx21Uonrrrsu3z958uQYPnx4u7wbbrhhTJo0KV599dW47bbb2u2zQYAAAQIECBAgQIAAAQIECBAg0H8CTRV8SsPnFi1alPdc6o7ggQceyLNst912FbMW02fOnFlxv0QCBAgQIECAAAECBAgQIECAAIH6CwytfxU9q+Haa6+NK6+8Mr72ta/F+PHjuz3omWeeyfOMHj26Yt5i+uzZsyvur5S41VZbVUqOJ598MsaNG1dxn0QCBAgQIECAAAECBAgQIECgDwKF7Nj0M5CWgXa+DbZtip5Pr7/+ehx77LExYcKE+MIXvtAjknRMWlZfffWK+ddYY408fcGCBRX3SyRAgAABAgQIECBAgAABAgQIEKi/QE16PqWnyz388MNVne3Pfvaz2GmnnfJjvvSlL8U//vGPuPHGGzvN31RVoX3MPGvWrIoldNUjqmJmiQQIECBAgAABAgQIECBAgAABAiWBmgSfnn766Xj00UdLhfZkZeHChXm29NS6Cy64ID7ykY/Ennvu2ZND8zwjR47MX4vldDzwjTfeyJNGjRrVcZdtAgQIECBAgAABAgQIECBAgACBfhKoSfDp/vvv7/XpXn/99bFixYp48MEHY4899mhXziOPPJJvn3XWWfGTn/wk9t133/jiF7+Yp40ZMybuu+++mDNnTrtjihvF9LFjxxaTvBIgQIAAAQIECBAgQIAAAQJNKNDWhOfklGonUJPgUy1OZ2UBrBSESj+bbrppqaptttkmfv3rX8e9995bSitfKaZPnDixPNk6AQIECBAgQIAAAQIECBAgQIBAPwo0fMLxM844IwqFQsWfj33sYznFJZdcku+fNm1aiWb//ffP12fMmBFLliwppaeVF198MW699dZYe+21Y7fddmu3zwYBAgQIECBAgAABAgQIECBAgED/CTQ8+NTbS02TlafA0ksvvdTuCXnLli3Ln5z35ptvxgknnBCrrrpqb6twHAECBAgQIECAAAECBAgQINAfAiuySgbST3+YtFAdTTPsrjemF110Ueyyyy5x3nnnxU033RRbbrll/OUvf4mnnnoqdt111zj11FN7U6xjCBAgQIAAAQIECBAgQIAAAQIEaiQwYHs+pesfP358Pun4lClTYu7cuTF9+vQYMmRInHbaaXHjjTfG8OHDa8SkGAIECBAgQIAAAQIECBAgQIAAgd4INHXPpzTHU/k8T5UucJNNNonUA8pCgAABAgQIECBAgAABAgQIECDQfAJNHXxqPi5nRIAAAQIECBAgQIAAAQIECNReoFD7IpXYNAIDethd0yg6EQIECBAgQIAAAQIECBAgQIAAgYoCgk8VWSQSIECAAAECBAgQIECAAAECBAjUQkDwqRaKyiBAgAABAgQIECBAgAABAgQIEKgoYM6niiwSCRAgQIAAAQIECBAgQIAAgX4TMOVTv1E3oiI9nxqhrk4CBAgQIECAAAECBAgQIECAwCAREHwaJA3tMgkQIECAAAECBAgQIECAAAECjRAw7K4R6uokQIAAAQIECBAgQIAAAQIEygSMuyvDaLlVPZ9arkldEAECBAgQIECAAAECBAgQIECgeQQEn5qnLZwJAQIECBAgQIAAAQIECBAgQKDlBASfWq5JXRABAgQIECBAgAABAgQIECBAoHkEzPnUPG3hTAgQIECAAAECBAgQIECAwKAUaDPlU0u3u55PLd28Lo4AAQIECBAgQIAAAQIECBAg0FgBwafG+qudAAECBAgQIECAAAECBAgQINDSAobdtXTzujgCBAgQIECAAAECBAgQIDAABAy7GwCN1PtT1POp93aOJECAAAECBAgQIECAAAECBAgQ6EZA8KkbILsJECBAgAABAgQIECBAgAABAgR6LyD41Hs7RxIgQIAAAQIECBAgQIAAAQIECHQjYM6nboDsJkCAAAECBAgQIECAAAECBOookM331DbQ5nwaaOdbx+brSdF6PvVESR4CBAgQIECAAAECBAgQIECAAIFeCQg+9YrNQQQIECBAgAABAgQIECBAgAABAj0REHzqiZI8BAgQIECAAAECBAgQIECAAAECvRIw51Ov2BxEgAABAgQIECBAgAABAgQI1E7AJEq1s2y+kvR8ar42cUYECBAgQIAAAQIECBAgQIAAgZYREHxqmaZ0IQQIECBAgAABAgQIECBAgACB5hMw7K752sQZESBAgAABAgQIECBAgACBwSVg1F1Lt7eeTy3dvC6OAAECBAgQIECAAAECBAgQINBYAcGnxvqrnQABAgQIECBAgAABAgQIECDQ0gKCTy3dvC6OAAECBAgQIECAAAECBAgQINBYAXM+NdZf7QQIECBAgAABAgQIECBAgIA5n1r6d0DPp5ZuXhdHgAABAgQIECBAgAABAgQIEGisgOBTY/3VToAAAQIECBAgQIAAAQIECBBoaQHD7lq6eV0cAQIECBAgQIAAAQIECBBodoE05m6gjbsbaOfb2N8BPZ8a6692AgQIECBAgAABAgQIECBAgEBLCwg+tXTzujgCBAgQIECAAAECBAgQIECAQGMFBJ8a6692AgQIECBAgAABAgQIECBAgEBLC5jzqaWb18URIECAAAECBAgQIECAAIEBIGAKpQHQSL0/RT2fem/nSAIECBAgQIAAAQIECBAgQIAAgW4EBJ+6AbKbAAECBAgQIECAAAECBAgQIECg9wKCT723cyQBAgQIECBAgAABAgQIECBAgEA3AuZ86gbIbgIECBAgQIAAAQIECBAgQKB+Am1Z0W2FgTXpUzpnS88F9HzquZWcBAgQIECAAAECBAgQIECAAAECVQoIPlUJJjsBAgQIECBAgAABAgQIECBAgEDPBQy767mVnAQIECBAgAABAgQIECBAgEA9BAbWqLt6CLR0mXo+tXTzujgCBAgQIECAAAECBAgQIECAQGMFBJ8a6692AgQIECBAgAABAgQIECBAgEBLCwg+tXTzujgCBAgQIECAAAECBAgQIECAQGMFzPnUWH+1EyBAgAABAgQIECBAgAABAmHSp1b+JdDzqZVb17URIECAAAECBAgQIECAAAECBBosIPjU4AZQPQECBAgQIECAAAECBAgQIECglQUMu2vl1nVtBAgQIECAAAECBAgQIECg2QXSiLuBNupuoJ1vg38H9HxqcAOongABAgQIECBAgAABAgQIECDQygKCT63cuq6NAAECBAgQIECAAAECBAgQINBgAcGnBjeA6gkQIECAAAECBAgQIECAAAECrSxgzqdWbl3XRoAAAQIECBAgQIAAAQIEBoKAOZQGQiv1+hz1fOo1nQMJECBAgAABAgQIECBAgAABAgS6ExB86k7IfgIECBAgQIAAAQIECBAgQIAAgV4LCD71ms6BBAgQIECAAAECBAgQIECAAAEC3QkIPnUnZD8BAgQIECBAgAABAgQIECBQX4FCNunTQPqpocaiRYviq1/9akyYMCFGjBgRG2+8cXziE5+IZ599tse1vPbaa3HZZZfFkUceGZtttlkMGzYsRo0aFTvvvHOcd9558eabb1Ysa8qUKdHW1tblzw9/+MOKx1WbaMLxasXkJ0CAAAECBAgQIECAAAECBAjUQGDx4sWx5557xp133hkbbbRRHHjggfH3v/89Lrroorj22mvz9Le//e3d1vTtb387zjrrrDyI9O53vzsPOs2dOzduv/32uPvuu+Oqq66K3/3ud7H66qtXLGufffaJt771rZ32veMd7+iU1psEwafeqDmGAAECBAgQIECAAAECBAgQINBHgW984xt5gGmXXXaJ3//+9zFy5Mi8xKlTp8ZnP/vZvAfUzTff3G0ta6yxRpxyyilx3HHHxZgxY0r5H3/88dh7773jtttui1TXf/7nf5b2la988YtfjD322KM8qabrht3VlFNhBAgQIECAAAECBAgQIECAQPUC2bC7GEg/1V9hxyOWLl0a3//+9/PkCy64oBR4Sgknn3xyTJw4MW655Za45557Oh7aafvUU0+Nb37zm+0CTynT+PHj47/+67/y/Jdffnmn4/orQfCpv6TVQ4AAAQIECBAgQIAAAQIECBD4X4E0JG7+/Pkxbty42HbbbTu5HHbYYXnajBkzOu2rJmGbbbbJsz/33HPVHFbTvIbd1ZRTYQQIECBAgAABAgQIECBAgACB7gUeeOCBPNN2221XMXMxfebMmRX39zTxqaeeyrNWmtOpWMavfvWr+OUvfxnLly/PJyyfPHlybLHFFsXdfX4VfOozoQIIECBAgAABAgQIECBAgACBwSbw5JNPxlZbbVXxsmfNmlUxvTzxmWeeyTdHjx5dnlxaL6bPnj27lNablfS0u7Skycy7Wr73ve+12/WFL3whPv3pT+dPyhs6tO+hI8Pu2vHaIECAAAECBAgQIECAAAECBPpdYCBN95TOtQbL66+/npfS1RPo0iTiaVmwYEH+2pv//fCHP4wbbrgh1lprrUiTindc0nC/lOexxx6LhQsXRuolleafSvkvvPDC+PznP9/xkF5t9z181atqHUSAAAECBAgQIECAAAECBAgQGLgCaa6mnvRwatQV3nrrrXHiiSdGW1tb/PSnP42NN96406mk/eXLZpttFscee2zsvvvukYb9pQnR0+Tnm2yySXm2qtf1fKqazAEECBAgQIAAAQIECBAgQIAAgb4JjBw5Mi8g9TiqtLzxxht58qhRoyrtXmnaQw89lA+zS0/US8PuDj744JXm77gzDSc84IADYtmyZXHjjTd23F31tuBT1WQOIECAAAECBAgQIECAAAECBAj0TWDMmDF5AXPmzKlYUDF97NixFfd3lfj000/HBz/4wXj11VfjjDPOiOOPP76rrCtNHz9+fL7/+eefX2m+nuw07K4nSvIQIECAAAECBAgQIECAAAEC9ROo0TxK9TvB2pe8zTbb5IXee++9FQsvpk+cOLHi/kqJKVD0gQ98INJrGlJ3+umnV8rWo7QUvEpLce6pHh3URSY9n7qAkUyAAAECBAgQIECAAAECBAgQqJfAbrvtFmuuuWakp+bdf//9naq56qqr8rTJkyd32lcpIQWL9tlnn7y8j3/84/Gd73ynUrYepS1ZsiSuu+66PG+a+6mvi+BTXwUdT4AAAQIECBAgQIAAAQIECBCoUmDYsGHxmc98Jj/quOOOi+IcTylh6tSpMXPmzHzi7+23375UcpoAfIsttohTTz21lJZW0rxR+++/fzz44INxxBFHxI9//ON8ovF2mTpsPPLII3HJJZdECjSVL3Pnzo1///d/j3/84x+RemelIFlfF8Pu+iroeAIECBAgQIAAAQIECBAgQKBPAm2FQTjuLhP7yle+EjfccEPccccdkeZYmjRpUsyePTvuuuuuWH/99fOn1JXDzps3Lx599NF8WF15+pe//OX485//HKusskoMHTo0jj766PLdpfVp06aV1l944YX46Ec/mg/P22GHHfL6nnvuubjnnntiwYIFMXr06PjFL37RbRCrVOBKVgSfVoJjFwECBAgQIECAAAECBAgQIECgXgIjRoyIP/7xj3H22WfHZZddFldffXWss846MWXKlDjzzDPzAFBP6i7Oz7R8+fK8nK6OKQ8+TZgwIU466aS488478x5TL7/8cgwfPjxSehrql+aMWnvttbsqqqr0LLg4SMOLVTClRwymZdasWVUcJSsBAgQIECBAgAABAgQIEOidwGD5OzRd5ytzF8Spnz6vd1ANOursH5wY66w/Spygh/7mfOohlGwECBAgQIAAAQIECBAgQIAAAQLVCwg+VW/mCAIECBAgQIAAAQIECBAgQIAAgR4KCD71EEo2AgQIECBAgAABAgQIECBAgACB6gUEn6o3cwQBAgQIECBAgAABAgQIECBAgEAPBTztrodQshEgQIAAAQIECBAgQIAAAQJ1EEjPQRtoz0IbaOdbh2arpkg9n6rRkpcAAQIECBAgQIAAAQIECBAgQKAqAcGnqrhkJkCAAAECBAgQIECAAAECBAgQqEZA8KkaLXkJECBAgAABAgQIECBAgAABAgSqEjDnU1VcMhMgQIAAAQIECBAgQIAAAQI1FzCHUs1Jm6lAPZ+aqTWcCwECBAgQIECAAAECBAgQIECgxQQEn1qsQV0OAQIECBAgQIAAAQIECBAgQKCZBASfmqk1nAsBAgQIECBAgAABAgQIECBAoMUEzPnUYg3qcggQIECAAAECBAgQIECAwIATKAy4M3bCVQjo+VQFlqwECBAgQIAAAQIECBAgQIAAAQLVCQg+VeclNwECBAgQIECAAAECBAgQIECAQBUCht1VgSUrAQIECBAgQIAAAQIECBAgUA8B4+7qodosZer51Cwt4TwIECBAgAABAgQIECBAgAABAi0oIPjUgo3qkggQIECAAAECBAgQIECAAAECzSIg+NQsLeE8CBAgQIAAAQIECBAgQIAAAQItKGDOpxZsVJdEgAABAgQIECBAgAABAgQGlIApnwZUc1V7sno+VSsmPwECBAgQIECAAAECBAgQIECAQI8FBJ96TCUjAQIECBAgQIAAAQIECBAgQIBAtQKG3VUrJj8BAgQIECBAgAABAgQIECBQW4HCitqWp7SmEtDzqamaw8kQIECAAAECBAgQIECAAAECBFpLoOmCT1dffXXsu+++sf7668eIESNik002iYMPPjhuu+22ivKvvvpqnHjiiTF27NgYPnx4/nrSSSfFa6+9VjG/RAIECBAgQIAAAQIECBAgQIAAgf4TaJrg04oVK+Loo48uBZq23377OOigg/Lg0/XXXx8333xzJ5V58+bFTjvtFOeff34MHTo0zz9q1Kg477zzYuedd45XXnml0zESCBAgQIAAAQIECBAgQIAAAQIE+k+gaeZ8+vrXvx4//elPY/LkyTFt2rRYZ511Sgqpd1MKNHVcUg+nJ554Ig455JC44oor8gBUynPCCSfE9773vTj55JPzsjoeZ5sAAQIECBAgQIAAAQIECBBoIoFCE52LU6m5QFP0fJozZ06cffbZMWbMmDyIVB54Sle89tprx/jx49td/PPPPx+XX355DBs2LC688MJS4Cll+ta3vpUP27v00kvjpZdeanecDQIECBAgQIAAAQIECBAgQIAAgf4TaIrg08UXXxxLly6NY445JlZbbbUeXf1vf/vbSEP1Jk2aFBtuuGG7Y9LcT6kH1fLlyyMN2bMQIECAAAECBAgQIECAAAECBAg0RqApht3ddNNN+dXvuuuukXo0/fznP8+H06255prx/ve/P/bZZ59oa2trJ/TAAw/k29ttt1279OJGSk/D+GbOnFlM8kqAAAECBAgQIECAAAECBAgQINDPAk0RfPrb3/6WX3Z6PfTQQ2P+/PklhnPOOSf22GOPmD59eqy11lql9GeeeSZfHz16dCmtfKWYPnv27PLkla5vtdVWFfc/+eSTMW7cuIr7JBIgQIAAAQIECBAgQIAAAQJ9EEjzPRUG2KRPA+x0+9A6NTm0KYbdpQnF05ImCJ84cWLce++98c9//jNuuOGG2GyzzfIn3X3yk59sd8Gvv/56vr366qu3Sy9urLHGGvnqggULikleCRAgQIAAAQIECBAgQIAAAQIE+lmgJj2fDj744Hj44YerOvWf/exnsdNOO+XHpLmb0pImFv/Nb34TxcDRXnvtFddcc00ekLrqqqviscceiwkTJuR56/G/WbNmVSy2qx5RFTNLJECAAAECBAgQIECAAAECBAgQKAnUJPj09NNPx6OPPloqtCcrCxcuLGUbOXJkpN5Phx9+eCnwVNz5rne9K3bccce4++67409/+lMp+JSOSUt5OcVj0usbb7yRb44aNao82ToBAgQIECBAgAABAgQIECBAgEA/CtQk+HT//ff36ZTHjh2bB5823XTTiuWk9BR8eumll0r7x4wZk6/PmTOnlFa+UkxPZVsIECBAgAABAgQIECBAgAABAgQaI9AUcz5tu+22+dUX537qSPHKK6/kScXeTmljm222ydPS/FCVlmJ6mkPKQoAAAQIECBAgQIAAAQIECBAg0BiBpgg+HXDAAfnV33LLLZ0U0sTixUBSMUiVMu27774xZMiQuPXWW9v1iEr7lixZEjNmzIhVVlkl9ttvv5RkIUCAAAECBAgQIECAAAECBAgQaIBAUwSfJk+eHO985zvjjjvuiAsvvLDEsHz58vwJeKnnU5r76b3vfW9p30YbbRRHHnlkLF26NI499thYtmxZad8pp5wSc+fOjQ9/+MOxwQYblNKtECBAgAABAgQIECBAgAABAs0mUIgoDLCfyM7X0mOBmsz51OPausiYeihddtllsfvuu8dxxx0XP/rRj2LzzTeP++67L5566qlYd9118/1tbW3tSvjud78bd955Z/zyl7+MLbbYInbYYYdIT6x76KGHYvz48TF16tR2+W0QIECAAAECBAgQIECAAAECBAj0r0BT9HxKl/zud7870sTlH/3oR+PFF1+Ma665Ju/VdMwxx8Q999wTW2+9dSeZ9dZbL5+I/Pjjj8/zTp8+PebPnx8nnHBCnr7OOut0OkYCAQIECBAgQIAAAQIECBAgQIBA/wk0Rc+n4uVuttlmcfHFFxc3e/SaAkznn39+/tOjA2QiQIAAAQIECBAgQIAAAQIEmkvAKLbmao8an03T9Hyq8XUpjgABAgQIECBAgAABAgQIECBAoAkEBJ+aoBGcAgECBAgQIECAAAECBAgQIECgVQUEn1q1ZV0XAQIECBAgQIAAAQIECBAgQKAJBJpqzqcm8HAKBAgQIECAAAECBAgQIECAQH8LFFb0d43q60cBPZ/6EVtVBAgQIECAAAECBAgQIECAAIHBJiD4NNha3PUSIECAAAECBAgQIECAAAECBPpRQPCpH7FVRYAAAQIECBAgQIAAAQIECBAYbAKCT4OtxV0vAQIECBAgQIAAAQIECBAgQKAfBQSf+hFbVQQIECBAgAABAgQIECBAgACBwSYg+DTYWtz1EiBAgAABAgQIECBAgAABAgT6UWBoP9alKgIECBAgQIAAAQIECBAgQIBAZ4FCoXOalJYR0POpZZrShRAgQIAAAQIECBAgQIAAAQIEmk9A8Kn52sQZESBAgAABAgQIECBAgAABAgRaRkDwqWWa0oUQIECAAAECBAgQIECAAAECBJpPwJxPzdcmzogAAQIECBAgQIAAAQIECAwuAVM+tXR7Cz61dPO6OAKtLVBY8WrE0r9GLHsiCoVF0dY2PGKV0RHDdoq2VTZq7Yt3dQQIECBAgAABAgQIEBggAoJPA6ShnCYBAv8nUCi8GbF4RhSW3hOx4uXs55WIwrIoRDaSeMhaEUv+HLHqhIjVjoi2ISP/70BrBAgQIECAAAECBAgQINDvAoJP/U6uQgIE+iJQyIJMsfDSLPB0b8TypyPaVs8CTutlRWa9niLbl4JRyx6MQh6Uei1ijU8JQPUF3LEECBAgQIAAAQIE6i2QDbkrFFbUu5balm+YYFWegk9VcclMgEDDBZb8IQs83ZcFmLLA09BxWeDpLe1PKfV8KizO9j8WkXWQikVXZAGoo9vnsUWAAAECBAgQIECAAAEC/SbgaXf9Rq0iAgT6KlAoLInCkmyOp+Wzs8DTpp0DT8UK2kZk+7Nhdyuei8Kbj0dh+bPFPV4JECBAgAABAgQIECBAoJ8FBJ/6GVx1BAj0QeDNB7KA0tysgOyfrrash9PKlhSASnlS/qV/WVlO+wgQIECAAAECBAgQIECgjgKG3dURV9EECNRYYNkz2ZC6bB6nIetkgaW27gtP+ZY/n81F/kz0IHf35clBgAABAgQIECBAgEB9BMyhVB/XJilVz6cmaQinQYBATwSWZsGnNBFhT+PmKd/y7CdN/mQhQIAAAQIECBAgQIAAgUYICD41Ql2dBAj0TiAfSrdKdmwWhOrRkuVrG5p1ksqG4FkIECBAgAABAgQIECBAoCECgk8NYVcpAQK9Ehi6+b+G3K14+X97QHVTyop5WfApG3qXjrMQIECAAAECBAgQIECAQEMEejp2pSEnp1ICBAi0Exi6ZRZ82jBLyuZ+ShOJr5LWu1hWLMgCVK9ngadxEcN27CKTZAIECBAgQIAAAQIEGi+QTfhUGGiTPg20821sKws+NdZf7QQIVCHQlg2hi+GTsmmfsh5Nyx7515FDNmg/+Xj60CrMz/Y/nQWeNou2VbeNtjTxuIUAAQIECBAgQIAAAQIEGiIg+NQQdpUSINBrgWG7RlsWfCpk/+UBphUvZL2h1s2KG579LMt6RGVD8tIk4ynwNGybiNUO7HVVDiRAgAABAgQIECBAgACBvgsIPvXdUAkECPSjQFtbWxRGHJD1ZlovCktuzYJNL/4r4FT4Z9YDKpuMfJXReTCqbdgOESP2ySYbX7Ufz05VBAgQIECAAAECBAj0SmDADbvr1VUO2oMEnwZt07twAgNXIAWgYvhu2VxOO0e8OSvr8PRENtRuURZ8Gvav4NOwbKhd22oD9wKdOQECBAgQIECAAAECBFpIQPCphRrTpRAYbAL5HFBpaF36sRAgQIAAAQIECBAgQIBAUwoMacqzclIECBAgQIAAAQIECBAgQIAAAQItIaDnU0s0o4sgQIAAAQIECBAgQIAAAQIDWSB7oJClZQX0fGrZpnVhBAgQIECAAAECBAgQIECAAIHGCwg+Nb4NnAEBAgQIECBAgAABAgQIECBAoGUFBJ9atmldGAECBAgQIECAAAECBAgQIECg8QLmfGp8GzgDAgQIECBAgAABAgQIECAwuAVWmPOplX8B9Hxq5dZ1bQQIECBAgAABAgQIECBAgACBBgsIPjW4AVRPgAABAgQIECBAgAABAgQIEGhlAcGnVm5d10aAAAECBAgQIECAAAECBAgQaLCA4FODG0D1BAgQIECAAAECBAgQIECAAIFWFhB8auXWdW0ECBAgQIAAAQIECBAgQIAAgQYLCD41uAFUT4AAAQIECBAgQIAAAQIECBBoZYGhrXxxro0AAQIECBAgQIAAAQIECBBocoFCdn6F9L8BtAyw0220rJ5PjW4B9RMgQIAAAQIECBAgQIAAAQIEWlhA8KmFG9elESBAgAABAgQIECBAgAABAgQaLWDYXaNbQP0ECBAgQIAAAQIECBAgQGCwCwy0YXeDvb2qvH49n6oEk50AAQIECBAgQIAAAQIECBAgQKDnAoJPPbeSkwABAgQIECBAgAABAgQIECBAoEoBwacqwWQnQIAAAQIECBAgQIAAAQIECBDouYA5n3puJScBAgQIECBAgAABAgQIECBQY4FCZP8NsDmf0jlbei6g51PPreQkQIAAAQIECBAgQIAAAQIECBCoUkDwqUow2QkQIECAAAECBAgQIECAAAECBHouIPjUcys5CRAgQIAAAQIECBAgQIAAAQIEqhQw51OVYLITIECAAAECBAgQIECAAAECNRYYYHM+1fjqW744PZ9avoldIAECBAgQIECAAAECBAgQIECgcQKCT42zVzMBAgQIECBAgAABAgQIECBAoOUFBJ9avoldIAECBAgQIECAAAECBAgQaHKBNOxuIP3UkHPRokXx1a9+NSZMmBAjRoyIjTfeOD7xiU/Es88+W3Utr776apx44okxduzYGD58eP560kknxWuvvdZlWcuXL4/vfOc7sfXWW8dqq60W66+/fhxxxBHx8MMPd3lMtTsEn6oVk58AAQIECBAgQIAAAQIECBAgUAOBxYsXx5577hlnnnlmvP7663HggQfGJptsEhdddFFsu+228dRTT/W4lnnz5sVOO+0U559/fgwdOjQOOuigGDVqVJx33nmx8847xyuvvNKprBUrVsThhx8eJ598csyZMyf233//2GqrreKqq66KHXbYIe6+++5Ox/QmQfCpN2qOIUCAAAECBAgQIECAAAECBAj0UeAb3/hG3HnnnbHLLrvEY489FldccUXcddddce6558bcuXPzHlA9rSL1cHriiSfikEMOiUcffTQv66GHHorjjz8+LzsFmDouP/3pT2P69Okxfvz4eOSRR/Kg08033xxXXnllLFy4MI466qhYtmxZx8Oq3hZ8qprMAQQIECBAgAABAgQIECBAgACBvgksXbo0vv/97+eFXHDBBTFy5MhSgSlQNHHixLjlllvinnvuKaV3tfL888/H5ZdfHsOGDYsLL7ww7/lUzPutb30rH0p36aWXxksvvVRMzl+nTp2av55zzjmx4YYblvYdeuihccABB+TBrF//+tel9N6uCD71Vs5xBAgQIECAAAECBAgQIECAQG0EBtJ8T+lca7DcfvvtMX/+/Bg3blw+xK5jkYcddlieNGPGjI67Om3/9re/jTSEbtKkSe2CSCljmvtp8uTJkeZ2uv7660vHPv300/m8TmmepzTcruNSTf0dj+24LfjUUcQ2AQIECBAgQIAAAQIECBAgQKDOAg888EBew3bbbVexpmL6zJkzK+4vT+xNWcVj3vWud8Wqq65aXly+Xk39nQ7ukDC0w7bNCgLPPPNMvPnmm/mkWxV2SyJAgAABAgQIECBAgAABAjUVePLJJysGBGpaSZMUNm/+3PivK7/WJGfTs9NI5/zawle6jBPMmjWr24JSrCEto0ePrpi3mD579uyK+8sTe1NWb44pr7OadcGnHmitscYa8cYbb/Qg5+DIkv4RTEvqGmhpfgHt1fxt1PEMtVlHkebe1l7N3T4dz057dRRp/m1t1vxtVH6G2qtco/nXtVdzt1HqiZL+Fm31ZaD+XbnuRmtHMXjT2zZKT7dLy+qrr16xiGL7L1iwoOL+8sTelNWbY8rrrGZd8KkHWi+88EIPcg2eLOmxi2npSSR38Kg075Vqr+Ztm67OTJt1JdOc6dqrOdulq7PSXl3JNG+6Nmvetql0Ztqrkkrzpmmv5m2bwXRm11xzzWC63EF7reZ8GrRN78IJECBAgAABAgQIECBAgACBRgkUn263cOHCiqdQHIE1atSoivvLE3tTVm+OKa+zmnXBp2q05CVAgAABAgQIECBAgAABAgQI1EBgzJgxeSlz5sypWFoxfezYsRX3lyf2pqzeHFNeZzXrgk/VaMlLgAABAgQIECBAgAABAgQIEKiBwDbbbJOXcu+991YsrZg+ceLEivvLE3tTVvGYhx56KH/IWnl5ab2a+jse23Fb8KmjiG0CBAgQIECAAAECBAgQIECAQJ0Fdtttt1hzzTUjTf5///33d6rtqquuytMmT57caV/HhH333TeGDBkSt956a7z00kvtdi9ZsiRmzJgRq6yySuy3336lfZtttlm8853vjEWLFsV1111XSi+uVFN/8ZiuXgWfupKRToAAAQIECBAgQIAAAQIECBCok8CwYcPiM5/5TF76cccdF8U5nlLC1KlTY+bMmbH77rvH9ttvXzqD73//+7HFFlvEqaeeWkpLKxtttFEceeSRsXTp0jj22GNj2bJlpf2nnHJKzJ07Nz784Q/HBhtsUEpPKyeffHK+nfKUB61+9atfRZoMfvPNN48DDzyw3TG92WgrZEtvDnQMAQIECBAgQIAAAQIECBAgQIBA7wUWL14ce+yxR9x11115AGnSpEkxe/bsfHv99dePO++8M97+9reXKjjjjDPia1/7WnzsYx+LadOmldLTyrx58+I973lP3pNq3LhxscMOO+RPqU/D6saPH5+Xtc4667Q7ZsWKFXHYYYfF9OnTY+2114699torL+eWW26JESNGxB//+MfYeeed2x3Tmw09n3qj5hgCBAgQIECAAAECBAgQIECAQB8FigGe0047LVZfffW4+uqr8+DTlClT8jmXygNP3VW13nrrxd133x3HH3983gMqBZTmz58fJ5xwQp7eMfCUyktD9a688so499xzY+ONN45rr702HnzwwTj00EPjr3/9a00CT6kePZ+SgoUAAQIECBAgQIAAAQIECBAgQKAuAno+1YVVoQQIECBAgAABAgQIECBAgAABAklA8MnvAQECBAgQIECAAAECBAgQIECAQN0EBJ/qRqtgAgQIECBAgAABAgQIECBAgAABwSe/AwQIECBAgAABAgQIECBAgAABAnUTEHyqG62CCRAgQIAAAQIECBAgQIAAAQIEBJ/8DhAgQIAAAQIECBAgQIAAAQIECNRNQPCpbrStV/CSJUvim9/8Zmy33XYxcuTIGD58eGy22WbxyU9+Mp566qkuL3jWrFlx+OGHx/rrrx+rrbZabL311vHd7343VqxY0eUxdtRO4Oqrr45999039x8xYkRssskmcfDBB8dtt91WsZJXX301TjzxxBg7dmzexun1pJNOitdee61ifon1EzjzzDOjra0t/7n00ku7rGjOnDnx8Y9/PDbeeONIbTxhwoQ4/fTTY/HixV0eY0ffBB555JH838P3v//9sd5668Wqq64ab33rW+OQQw6JW2+9daWFa6+V8tRt56JFi+KrX/1q/v5I75P0fvnEJz4Rzz77bN3qVHDXAgsXLoz0+XT00UfHO97xjvzfrjXWWCO22Wab+PrXvx6vv/56lwdPmzYtdtppp/xeZJ111on99tsv7rjjji7z21EfgZdffjk22GCD/DNq8803X2kl2mylPHXdOXfu3Pjc5z6Xv8/SfXh6z6R7+c9//vMV650xY0bsvvvu8Za3vCX/2WOPPeK6666rmFciAQIEqhIoWAj0QCC7aS+85z3vKWS/XIW11lqrkN3oFbI/sgqbbrppnjZq1KjCX//6104lZTeDheyDLs+T3SgWjjjiiEL2B1q+nQWkClkAqtMxEmojsHz58kL2h1Vund3QF/bZZ5/Cv/3bvxV22WWXwrBhwwpZYKNTRdkNSiG7gcyPefvb356311ZbbZVvZwGNQnaj2ekYCfURyIIbhSzAW8iCT7n/JZdcUrGixx9/vJAFP/I873rXu/I2S22X3qu77bZbIQtAVTxOYt8E3va2t+XGWSC+sPfee+fuyT+5pzb7zne+U7EC7VWRpe6J5Z9hG220Ud5e6TMptVf2xUjhySefrPs5qKC9wI9//OPcP7XBO9/5zkK6J0ifU+l+IqVtscUWhRdffLH9QdlW9uVIvj/dWxx44IH5MUOHDi2sssoqhenTp3fKL6F+Ah/72MdKn1Hjxo3rsiJt1iVN3Xeke/N11103f8+k+7l0H/ihD32okH2xmL9nOp5A+uxK77/0nsq+uMzfY8X7+O9973sds9smQIBAVQJRVW6ZB63Aeeedl38Y7bjjjoWsB0zJYdmyZYXPfOYz+b73ve99pfS0snTp0kLWMyrfN3Xq1NK+BQsW5AGQ9OF20UUXldKt1FYg6/mS20+ePLlT0OiVV14pPPbYY50qPOqoo/JjUmDxzTffLO0//vjj8/R0o2mpv0AKyqb304Ybbpjf+KX3SlfBpxRgSvtPOOGE0omltst6t+Xp6ffAUnuBvfbaq/Czn/2skIIa5csPf/jD3D39IZz1+izfla9rr04k/ZLw5S9/OW+XFHxPn0HF5dxzz83Ts2/5i0le+0kg6wlT+NSnPlX429/+1q7G5557rrDtttvm7XLkkUe22/eHP/whT09/TJd/hqUvutKXKunLsaz3brtjbNRH4IYbbsjbIrVh+gzqKvikzerj35NSX3rppfzLqdVXX73w61//utMhd911V7u09KVX+uxKX3yl91RxefTRR/MAVgpIpS9QLAQIEOitgOBTb+UG2XGHHnpofnNx+eWXd7ryFMhINx7pm5Hy5YorrsjTsy705cn5+j333JPvSz0FLLUX+Mc//pHfiI8ZM6aQDW3oUQXphn/IkCH5cS+88EK7Y1LvmdQ7IN2UVPomul1mG30W+NGPfpS/P7KhdoUU8Osq+JRuHNO+bNhDpx5OqQ2zoWCFtddeu10gsc8np4BuBT74wQ/m7XLGGWe0y6u92nH020Y2ZLyw5ppr5m1y7733dqp34sSJ+b5KvXc7ZZbQLwLpD9/0b1v6Izi1X3FJPTZSeqWehSkAn/Z9+9vfLmb3WieBdF+Rgk1bbrllHgRM7l0Fn7RZnRqhB8V++tOfzt8TF1xwQQ9yFwrF/KmnWsclfYmc2jl94WwhQIBAbwXM+ZT9S2rpXiDN79Tdkn0T2S5LcXz4YYcd1i49baSx5tnQoHjooYfi73//e6f9EvomcPHFF0fW8yyOOeaYfJ6tnpT229/+Np+Ha9KkSZH1uGl3SGr/rAdVZEP54vrrr2+3z0ZtBbKgUZxyyimR9ayJrCfaSgsvvsdS23R8j6Y2TG2Z5vDqan6vlRZuZ68F0pw1ackCuu3K0F7tOPpt4/bbb4/58+dH9sdxZD1qOtVb/IxK85xYmkOg+B5Kc02meYXSkubsuummm/L1YpvlG//7v2KadixXqc/61772tXyuz6ynZz7fXVe1aLOuZOqfnuzTXJFpHrU0J2RPluJnVPG9VH5MMc37q1zFOgEC1QoIPlUrNkjzZ9/k51eeffOR38QXGVIwIk3gmpY0aWj58sADD+SbKdBUaSmmz5w5s9JuaX0QKN6g77rrrvH8889H9k1w/Md//Ed84QtfiBRkyqLVnUrXXp1IGpKQfXuf/5H1gx/8oNv6tVm3RA3JUHwAQ5qAvHzRXuUa/bfOvf+sa1VT8T2UJvJPkyOnJRv6EykYlR5eMnr06E5VuafoRFKXhHTPlg1XzQMa6QuOlS3abGU69d2X9eSMbIhxHnDPRibEb37zmzj55JPj2GOPzR/60/HLkfRQmWeeeSY/qUpB+vSwmvRwjdmzZ8c///nP+p680gkQaFmBoS17ZS6spgIf/vCH86DF//zP/0Q2yXhk85bkT6bJhs9FNgwrf2LGaaed1q7O4odYpZvElLGYnj7ILLUVyObQyAtMr9mQyXYBw3POOSfSk0uyiVkjmx+jVLH2KlE0bOXaa6+NK6+8MtK3yuPHj+/2PLRZt0T9niGbuDpSO6blgAMOaFe/9mrH0W8b3PuNumYVZfNM5mWlJ7UWe3V2146ph0f6TEu9PdMf3dnE5TU7HwX9SyA9pTj1qE7O6V6iu0WbdSdUv/3F+8D0NMKDDjoosjmf2lX2pS99Kf77v/87snnV8vRiW2VD9fPeUu0y/+9Gum+fN29eHoBKT662ECBAoFoBPZ+qFRuk+bO5fvLuu2k4UPp2JHXN/eUvf5kPmcueUpMPEUp5ypfiY5KziQ7Lk0vr6UYxLekm0VJbgXTznZb0LVc2n0lk85zk31RlE4RGNgl83HzzzfHJT36yXaXaqx1Hv28k//SNZPZUwbyHWk9OQJv1RKn/8mQPYIgpU6bkvTOyJwrF9ttv365y7dWOo982uPcbdU0qSkO70x/FqddT9lTWUpndtWPK6L6ixFWXlexpZ/GXv/wlvvWtb0XHqRYqVajNKqn0T1rxPvCaa67JvzzO5n2KbALy/L79c5/7XN7DOptTMu6///78hLRV/7SLWggMdgE9nwbJb0D25Kt4+OGHq7ra7ElOkT2KOj8mfYilMtJNR/pGMvWmSUGlP/3pT5E9CS3222+/uOyyyyL9wWXpu0Bf2yt9O5mW9A1W6mpdvCFP8wilG5EUkLrqqqsie1pQHuzo+xkroa9tlr6FzCaKjxtvvLH0TT/V+gn0tb0qnVkaMpnm10rz2V144YWVskgjQGAlAtnTtiL1tE5Dw1OAozj300oOsaufBFLPmK985SuRPRkyD7L3U7Wq6aVA8T4wfSly1lln5V9uFYtK76006iD1tE7rP//5z4u7vBIgQKCuAoJPdeVtnsKffvrpfL6Eas4oe5pJKfv/+3//L2655ZbInjAT6Q+s4nLggQfG2972tjxI9dnPfjYOOeSQ0uSTI0eOzLu/l5dTPC69vvHGG/mmrvHlKv9a72t7Fe0PP/zwUuCpWEv2hMHYcccd4+67786Dh6mnTVrSMWnRXjlD1f/rS5ultkjfSn7kIx+JPffcs8d1a7MeU3XK2Jf26lRYlpBu7tM8XWmi99/97neleWrK82qvco3+W+fef9Z9qenZZ5+NNMwufdmVeu1mT9xqV1x37Zgyu69oR1bTjeOOOy5/kEmaZLynizbrqVTt8xXtU8mVJhxPaSn4lO7t01LM39U9YMrj/ZUULAQI9EVA8KkvegPo2GK32t6ccppU/PLLL88PLT7torycHXbYIR/KlSYITT/veMc78t1jxozJbyLnzJmT97QpPyatp/S0jB07Nn/1v/8T6Et7pVKSabqBT/NzVVpSegp4pC7YxSW1V1qK7VJML74W07VXUaT9a1/aLA0zSd9SPvjgg/l8XOUlp54AaUnBjZ/85Cf5H2df/OIX87TUZvfdd582yzWq+19f2qtjTemPsdQjYM0118yHN2y++eYds+Tb2qsiS90T/dtWd+I+V/DKK69EerBJ6o2R/ihOD8nouHTXjukP4zQtQOrx60utjnp9305z2aW5ntLDS8qXxYsX55speJjmk0xLmh80PXBBm+UcDflf8V4tjVJIk/R3XIr3h8X7wGJbpXvH9F4q9pgvP859YLmGdQIEeiMg+NQbtUF2TPpgWrp0aX7V6Y+rSksxPX1oFZfUXT49ZSjNN5SG5XVcUnpa0hAwS20F0pNK0h/X5e1RXkO60U9L8ZuutF4c3lBsl5RWvhTTtVe5Sm3XVxYQSUGo9FO8YUw1pzZLk4gW26bj2RTTtVlHmdptpz+yUo+AdIOf5sJ797vf3WXh2qtLmrru8G9bXXn7XHiaa+ZDH/pQpAmSU+/pH//4x9HW1tap3PTFVpp8fO7cuZECHanXdfni37tyjfqsp+BesadMxxpSEKq4rxiQ0mYdlfpvu/jEukWLFuXzEBYn7i+eQcf7wBRYTAGoNLwyfan13ve+t5g1f03TAqTJxlNQ6y1veUu7fTYIECDQUwETjvdUahDnS485HjZsWC6QHt3acUmPXE2P001L8ZuWtL7//vunl3xuoXyl7H/pgy31kkpDwMr/mC7LYrUPAsWnbBVvBMuLSjf6xZv04s1J2p+GOwwZMiRuvfXWdj2i0r70eOsZM2ZEmlS+UiAx5bH0XuCMM87I5zhJ85x0/EkTgqblkksuyfdNmzYt307/K77HUtukNipf0lMoU1umXgDp6ZSW2gukHmsf/ehHY+jQofnTI7tz1l61b4OelJjaJX1Bkp5EWCnAm+a/S8vkyZN7Upw8NRRI/26l4fupJ+4+++yT97Lu+PCSYnXpcfHFYclpuFDHRTt2FKntdsfPpuJ2GsKclnHjxpU+v4r3ddqstm1QTWkpkJQC76mdKt0LFtPK7wOLn1HF91J5fcU0/06Wq1gnQKBqgewfJQuBbgWyYEYh++UqZN/qF5577rlS/uwblcJRRx2V78tu8EvpaSXrLVXInqyW75s6dWppXxb8KOyyyy55+kUXXVRKt1I7gWyCyUL2FMLcOJtLqFRwSs+ecpenZ4G/QjbUq7QvrRTbMptQvvDmm2+W9mXzfOXHZIGQUpqV/hFI5um9lwWfKlaY3ndpfzY/Sml/arusB0Gefvrpp5fSrdROIJtYvJD9YVXIAk+F6dOn97hg7dVjqppm/PKXv5y/H3bddddC+gwqLueee26enk2iXEzy2k8C6fMom/g/9580aVIhG+rTbc1/+MMf8vzZk9YK2QMzSvnvuOOOQtazo5D13ihkPX5L6VbqL5AFn/I2yYJPFSvTZhVZ+iUxm0g8b5utt9663b179gVwIftiOd/3i1/8onQuWe/qQhb8zd9Lf/7zn0vp6b2W3nPp8+7xxx8vpVshQIBAtQJt6YCqI1YOGHQC6Rvj9O1x6k2R5lLIgkeRvtFKT7/LglH55LrpW5TUk6l8yW4IY++9984f6brzzjvnPaNSb4znn38+0vxR2Ydexe715WVY751A+oY/PZUm9UxL336leWiKPc7SI5L/+Mc/RnZD0q7w1KX6Pe95T95DIH2LmebzmjVrVjz00EMxfvz4uPPOOytOpNyuEBs1FZgyZUpcfPHFec+n9BSojkt2I5i/H19++eW8Pbfccsv8fZl6FmZ/aMdNN93k6Xkd0WqwnXqUpSEoWYA93ve+91UsMQ1bOOaYY9rt017tOPptIw0DSvPR3HXXXbHRRhtFFuzI5xdK22k+lPRvW3pKoaX/BNKTc0866aS8wvT0ya6G8qT5n9Zbb73SiaVj0rFpqOsHPvCBfFqALMCR9/BIvTMOOuigUl4r9Rf4+9//nv87mO4ZnnjiiYoVarOKLP2SWLyHSMPq0j1BGoaX7s1Tr8Psy8j40Y9+1O480oOF0oT/qUdven+lkQ+///3v8+POP//8/AnX7Q6wQYAAgWoEqo1WyT94BV544YVC9tS7whZbbFEYMWJE/s1IFtAoZPOdFLKx4F3CZIGLQupJk741ScdttdVWhdQTKpvIvMtj7KiNQBaAKGTDggrZxJ+FVVddtTB69OhC9sdwIbtZ7LKCLIhROP744wubbLJJIbvpyF9TzyffJndJVtcd3fV8SpVnczQUshvMvJ1Tm6X35WmnnVZIPRMt9RHIPmfzb41X9tpVT0HtVZ826a7U7ClO+fsi9dBI75P072J636zs86u7Mu3vvUDqlbmy909xX+pZ03FJvaa33377QhaAyns7ZcPGC7fffnvHbLb7QaC7nk/FU9BmRYn+fU093LMAU+n9kk0kno8+yIbwd3ki11xzTSH1RszmBc1/0no2vL/L/HYQIECgpwJ6PmV3NxYCBAgQIECAAAECBAgQIECAAIH6CJhwvD6uSiVAgAABAgQIECBAgAABAgQIEMgEBJ/8GhAgQIAAAQIECBAgQIAAAQIECNRNQPCpbrQKJkCAAAECBAgQIECAAAECBAgQEHzyO0CAAAECBAgQIECAAAECBAgQIFA3AcGnutEqmAABAgQIECBAgAABAgQIECBAQPDJ7wABAgQIECBAgAABAgQIECBAgEDdBASf6karYAIECBAgQIAAAQIECBAgQIAAAcEnvwMECBAgQIAAAQIECBAgQIAAAQJ1ExB8qhutggkQIECAAAECBAgQIECAAAECBASf/A4QIECAAAECBAgQIECAAAECBAjUTUDwqW60CiZAgAABAgQIECBAgAABAgQIEBB88jtAgAABAgQIECBAgAABAgQIECBQNwHBp7rRKpgAAQIECBAgQIAAAQIECBAgQEDwye8AAQIECBAgQIAAAQIECBAgQIBA3QQEn+pGq2ACBAgQIECAAAECBAgQIECAAAHBJ78DBAgQIECAAAECBAgQIECAAAECdRMQfKobrYIJECBAgAABAgQIECBAgAABAgT+P2KiUFUs2CaOAAAAAElFTkSuQmCC;" vertex="1" parent="1">
          <mxGeometry x="20" y="30" width="723" height="639.88" as="geometry" />
        </mxCell>
        <mxCell id="OaqMFefLZu2syXG3M1Z5-5" value="" style="rounded=1;whiteSpace=wrap;html=1;fillColor=none;" vertex="1" parent="1">
          <mxGeometry x="280" y="80" width="310" height="80" as="geometry" />
        </mxCell>
        <mxCell id="OaqMFefLZu2syXG3M1Z5-6" value="" style="rounded=1;whiteSpace=wrap;html=1;fillColor=none;" vertex="1" parent="1">
          <mxGeometry x="320" y="360" width="310" height="80" as="geometry" />
        </mxCell>
        <mxCell id="OaqMFefLZu2syXG3M1Z5-7" value="" style="rounded=1;whiteSpace=wrap;html=1;fillColor=none;" vertex="1" parent="1">
          <mxGeometry x="72" y="270" width="160" height="360" as="geometry" />
        </mxCell>
      </root>
    </mxGraphModel>
  </diagram>
</mxfile>
